<?xml version="1.0" encoding="utf-8"?>
<!-- Generator: Adobe Illustrator 16.0.0, SVG Export Plug-In . SVG Version: 6.00 Build 0)  -->
<!DOCTYPE svg PUBLIC "-//W3C//DTD SVG 1.1//EN" "http://www.w3.org/Graphics/SVG/1.1/DTD/svg11.dtd">
<svg version="1.1" id="Layer_1" xmlns="http://www.w3.org/2000/svg" xmlns:xlink="http://www.w3.org/1999/xlink" x="0px" y="0px"
	 width="24px" height="24px" viewBox="0 0 24 24" enable-background="new 0 0 24 24" xml:space="preserve">
<path fill="#2BBCA0" d="M20.558,24c-0.54,0-1.046-0.208-1.426-0.589L12,16.273l-7.131,7.138c-0.76,0.761-2.092,0.761-2.853,0
	L0.59,21.983c-0.787-0.786-0.787-2.067,0-2.854l7.131-7.138L0.59,4.854c-0.787-0.787-0.787-2.068,0-2.855l1.426-1.427
	c0.761-0.761,2.092-0.761,2.853,0L12,7.709l7.132-7.138c0.76-0.761,2.092-0.761,2.852,0l1.427,1.427
	c0.786,0.787,0.786,2.068,0,2.855l-7.132,7.138l7.132,7.138c0.786,0.787,0.786,2.068,0,2.854l-1.427,1.428
	C21.604,23.792,21.098,24,20.558,24z M12,14.256c0.54,0,0.893,0.209,1.272,0.59l6.978,7.138v-0.751h0.311l1.423-1.051l-7.131-6.95
	c-0.381-0.381-0.59-0.793-0.59-1.334c0-0.54,0.209-1,0.59-1.38l7.131-7.115l-1.426-1.416l-7.132,7.144
	c-0.76,0.761-2.092,0.763-2.852,0.002L3.442,1.997L2.016,3.425l7.132,7.139c0.38,0.38,0.589,0.887,0.589,1.427
	s-0.209,1.047-0.589,1.427l-7.132,7.138l1.426,1.427l7.132-7.138C10.954,14.465,11.46,14.256,12,14.256z"/>
</svg>
