<?xml version="1.0" encoding="utf-8"?>
<!-- Generator: Adobe Illustrator 16.0.0, SVG Export Plug-In . SVG Version: 6.00 Build 0)  -->
<!DOCTYPE svg PUBLIC "-//W3C//DTD SVG 1.1//EN" "http://www.w3.org/Graphics/SVG/1.1/DTD/svg11.dtd">
<svg version="1.1" id="Layer_1" xmlns="http://www.w3.org/2000/svg" xmlns:xlink="http://www.w3.org/1999/xlink" x="0px" y="0px"
	 width="37px" height="34px" viewBox="0 0 37 34" enable-background="new 0 0 37 34" xml:space="preserve">
<path d="M17.963,1.642c-0.042-0.256-0.218-0.47-0.458-0.561C16.033,0.539,14.085,0,11.998,0C10.359,0,8.625,0.338,7.01,1.286l0,0
	C6.197,1.762,5.557,2.367,5.07,3.045c-0.733,1.02-1.124,2.193-1.344,3.383c-0.178,0.963-0.244,1.945-0.28,2.896
	c-0.42,0.01-0.897,0.014-1.331,0.014c-0.38,0-0.728-0.003-0.98-0.005C1.008,9.33,0.906,9.329,0.835,9.329
	c-0.071-0.002-0.108-0.003-0.11-0.003C0.535,9.323,0.348,9.4,0.212,9.534C0.076,9.67-0.001,9.858,0,10.052l0.028,4.79
	c0.002,0.399,0.323,0.751,0.717,0.751c0,0,0.191,0,0.499,0c0.698,0,2.002-0.032,3.005-0.011c0.148,3.29,0.183,8.222,0.183,12.047
	c0,1.615-0.007,3.019-0.012,4.032c-0.003,0.505-0.007,0.905-0.009,1.186c-0.002,0.278-0.003,0.426-0.003,0.428
	c-0.002,0.191,0.073,0.377,0.208,0.515C4.75,33.925,4.934,34,5.125,34l6.351-0.031c0.191-0.002,0.371-0.079,0.504-0.217
	c0.135-0.137,0.207-0.32,0.207-0.513c0,0-0.033-3.942-0.073-8.195c-0.032-3.657-0.069-7.538-0.091-9.345
	c0.392-0.008,0.848-0.01,1.292-0.01c0.519,0,1.024,0.003,1.399,0.006c0.186,0.001,0.342,0.004,0.449,0.005s0.168,0.002,0.168,0.002
	c0.191,0.003,0.375-0.073,0.512-0.207c0.135-0.135,0.213-0.32,0.213-0.513l0.008-4.438c0-0.192-0.074-0.44-0.211-0.575
	c-0.134-0.136-0.315-0.274-0.506-0.274c0,0-0.086,0-0.238,0c-0.151,0-0.367,0.065-0.627,0.065c-0.797,0-2.002,0.03-2.955,0.012
	c0.018-0.492,0.061-0.91,0.133-1.282c0.068-0.361,0.164-0.653,0.277-0.894c0.084-0.182,0.178-0.324,0.278-0.442
	c0.153-0.18,0.319-0.301,0.532-0.391c0.211-0.088,0.479-0.142,0.822-0.142c0.607-0.001,1.441,0.179,2.487,0.587
	c0.009,0.003,0.017,0.004,0.024,0.007s0.016,0.008,0.023,0.01c0.016,0.005,0.031,0.006,0.046,0.009
	c0.024,0.007,0.048,0.011,0.072,0.015c0.022,0.002,0.046,0.003,0.069,0.005c0.023,0,0.047,0.001,0.07,0
	c0.023-0.003,0.045-0.006,0.068-0.01c0.021-0.003,0.045-0.008,0.066-0.014c0.022-0.006,0.043-0.015,0.064-0.021
	c0.021-0.009,0.043-0.017,0.064-0.028c0.02-0.01,0.039-0.021,0.058-0.032c0.021-0.013,0.04-0.025,0.06-0.04
	c0.018-0.013,0.033-0.027,0.049-0.044c0.02-0.016,0.035-0.031,0.051-0.049C16.859,7,16.873,6.982,16.886,6.963
	c0.014-0.02,0.028-0.039,0.04-0.059c0.011-0.021,0.022-0.042,0.032-0.064c0.007-0.016,0.016-0.029,0.021-0.044
	c0.003-0.007,0.004-0.016,0.008-0.025c0.002-0.008,0.007-0.015,0.009-0.022c0.145-0.48,0.392-1.286,0.604-2.133
	c0.105-0.425,0.204-0.863,0.277-1.284C17.951,2.908,18,2.506,18,2.131C18,1.964,17.99,1.804,17.963,1.642z M11.973,5.541
	c-0.353,0.184-0.661,0.444-0.908,0.758c-0.372,0.472-0.61,1.051-0.761,1.708c-0.15,0.66-0.214,1.407-0.214,2.25
	c0,0.087,0.001,0.175,0.001,0.261c0.006,0.387,0.311,0.593,0.692,0.605c1.017,0.033,2.681-0.067,3.698-0.067
	c0.053,0,0.102,0,0.152,0l-0.006,3.09c-0.365-0.002-0.832,0.047-1.313,0.047c-0.761,0-1.548,0.033-2.051,0.059
	c-0.386,0.018-0.685,0.354-0.679,0.743c0.02,1.231,0.062,5.803,0.101,10.054c0.02,2.126,0.037,4.181,0.051,5.696
	c0.007,0.736,0.012,1.347,0.015,1.781l-4.91,0.025c0.008-0.956,0.018-2.769,0.018-4.941c0-4.105-0.038-9.483-0.217-12.806
	c-0.021-0.374-0.317-0.667-0.688-0.68c-0.968-0.034-2.575-0.042-3.502-0.042l-0.02-3.309c0.202,0.002,0.435,0.003,0.681,0.003
	c0.698,0,1.499-0.007,2.064-0.04c0.371-0.021,0.663-0.327,0.672-0.701C4.89,8.521,4.976,6.981,5.375,5.67
	c0.199-0.656,0.473-1.254,0.85-1.777c0.379-0.525,0.86-0.981,1.504-1.361l0,0C9.083,1.737,10.549,1.443,12,1.441
	c1.648,0,3.262,0.391,4.567,0.836c-0.011,0.226-0.044,0.504-0.096,0.806c-0.097,0.558-0.252,1.192-0.411,1.771
	c-0.072,0.266-0.145,0.52-0.214,0.752c-0.843-0.275-1.593-0.423-2.276-0.425C12.987,5.181,12.446,5.292,11.973,5.541z"/>
<path fill="#2BBCA0" d="M36.963,1.642c-0.042-0.256-0.218-0.47-0.458-0.561c-1.473-0.542-3.42-1.08-5.508-1.081
	c-1.639,0-3.373,0.338-4.987,1.286l0,0c-0.813,0.477-1.453,1.081-1.94,1.759c-0.733,1.019-1.124,2.192-1.344,3.382
	c-0.178,0.963-0.244,1.945-0.281,2.896c-0.42,0.01-0.896,0.014-1.33,0.014c-0.381,0-0.729-0.003-0.98-0.005
	c-0.127-0.002-0.229-0.003-0.299-0.003c-0.072-0.002-0.109-0.003-0.11-0.003c-0.19-0.003-0.377,0.074-0.513,0.208
	C19.076,9.67,18.999,9.859,19,10.052l0.029,4.79c0.002,0.399,0.322,0.751,0.717,0.751c0,0,0.19,0,0.498,0
	c0.698,0,2.002-0.032,3.006-0.011c0.147,3.29,0.183,8.222,0.183,12.047c0,1.615-0.007,3.019-0.013,4.032
	c-0.003,0.505-0.006,0.905-0.008,1.186c-0.003,0.277-0.004,0.426-0.004,0.428c-0.002,0.191,0.072,0.376,0.207,0.515
	C23.75,33.925,23.934,34,24.125,34l6.352-0.032c0.191-0.002,0.371-0.078,0.504-0.217c0.135-0.136,0.207-0.319,0.207-0.513
	c0,0-0.033-3.941-0.073-8.194c-0.032-3.657-0.069-7.538-0.091-9.345c0.392-0.008,0.848-0.01,1.292-0.01
	c0.519,0,1.024,0.003,1.399,0.006c0.186,0.001,0.342,0.004,0.449,0.005s0.168,0.002,0.168,0.002
	c0.191,0.003,0.375-0.073,0.512-0.207c0.135-0.135,0.213-0.32,0.213-0.513l0.008-4.438c0-0.192-0.074-0.44-0.211-0.575
	c-0.134-0.136-0.315-0.274-0.506-0.274c0,0-0.086,0-0.238,0c-0.151,0-0.367,0.065-0.627,0.065c-0.797,0-2.002,0.029-2.955,0.012
	c0.018-0.492,0.061-0.91,0.133-1.282c0.068-0.361,0.164-0.653,0.277-0.893c0.084-0.183,0.178-0.325,0.278-0.443
	c0.153-0.179,0.319-0.301,0.532-0.39c0.211-0.089,0.479-0.142,0.822-0.142c0.607-0.001,1.441,0.179,2.487,0.587
	c0.009,0.003,0.017,0.004,0.024,0.007s0.016,0.008,0.023,0.01c0.016,0.005,0.031,0.006,0.046,0.009
	c0.024,0.007,0.048,0.011,0.072,0.015c0.022,0.002,0.046,0.003,0.069,0.005c0.023,0,0.047,0.001,0.07,0
	c0.023-0.003,0.045-0.006,0.068-0.01c0.021-0.003,0.045-0.008,0.066-0.014c0.022-0.006,0.043-0.015,0.064-0.022
	c0.021-0.009,0.043-0.017,0.064-0.027c0.02-0.01,0.039-0.021,0.058-0.033c0.021-0.013,0.04-0.024,0.06-0.04
	c0.018-0.013,0.033-0.027,0.049-0.044c0.02-0.016,0.035-0.031,0.051-0.049C35.859,7,35.873,6.982,35.886,6.963
	c0.014-0.02,0.028-0.038,0.04-0.059c0.011-0.021,0.022-0.041,0.032-0.064c0.007-0.016,0.016-0.028,0.021-0.044
	c0.003-0.007,0.004-0.016,0.008-0.024c0.002-0.008,0.007-0.015,0.009-0.023c0.145-0.48,0.392-1.286,0.604-2.133
	c0.105-0.425,0.204-0.863,0.277-1.284C36.951,2.908,37,2.506,37,2.131C37,1.965,36.99,1.804,36.963,1.642z M30.973,5.541
	c-0.353,0.184-0.661,0.445-0.908,0.758c-0.372,0.472-0.61,1.051-0.761,1.708c-0.15,0.659-0.214,1.407-0.214,2.25
	c0,0.087,0.001,0.175,0.001,0.261c0.006,0.387,0.311,0.593,0.692,0.605c1.017,0.033,2.681-0.067,3.698-0.067
	c0.053,0,0.102,0,0.152,0l-0.006,3.09c-0.365-0.002-0.832,0.047-1.313,0.047c-0.761,0-1.548,0.033-2.051,0.059
	c-0.386,0.018-0.685,0.354-0.679,0.743c0.02,1.231,0.062,5.803,0.101,10.054c0.02,2.126,0.037,4.181,0.051,5.696
	c0.007,0.735,0.012,1.347,0.015,1.78l-4.91,0.026c0.009-0.957,0.018-2.769,0.018-4.941c0-4.105-0.037-9.483-0.217-12.806
	c-0.02-0.374-0.316-0.667-0.688-0.68c-0.967-0.034-2.574-0.042-3.502-0.042l-0.02-3.309c0.203,0.002,0.436,0.003,0.682,0.003
	c0.697,0,1.498-0.007,2.064-0.039c0.371-0.022,0.662-0.328,0.672-0.701c0.039-1.516,0.125-3.057,0.524-4.368
	c0.198-0.655,0.473-1.254,0.851-1.777c0.379-0.524,0.859-0.981,1.504-1.36l0,0c1.354-0.796,2.819-1.09,4.27-1.092
	c1.648,0,3.262,0.391,4.567,0.836c-0.011,0.226-0.044,0.503-0.096,0.805c-0.097,0.558-0.252,1.192-0.411,1.772
	c-0.072,0.266-0.145,0.52-0.214,0.752c-0.843-0.275-1.593-0.423-2.276-0.425C31.987,5.181,31.446,5.292,30.973,5.541z"/>
</svg>
