<?xml version="1.0" encoding="utf-8"?>
<!-- Generator: Adobe Illustrator 16.0.0, SVG Export Plug-In . SVG Version: 6.00 Build 0)  -->
<!DOCTYPE svg PUBLIC "-//W3C//DTD SVG 1.1//EN" "http://www.w3.org/Graphics/SVG/1.1/DTD/svg11.dtd">
<svg version="1.1" id="Layer_1" xmlns="http://www.w3.org/2000/svg" xmlns:xlink="http://www.w3.org/1999/xlink" x="0px" y="0px"
	 width="400px" height="19px" viewBox="0 0 400 19" enable-background="new 0 0 400 19" xml:space="preserve">
	<defs>
		<style type="text/css"><![CDATA[
			svg { height: 59px; }
			g:hover { cursor:pointer; }
			g:hover path,
			g.active path { stroke-width:5px; }

			.story-point[data-point='1']:hover path,
			.story-point[data-point='1'].active path { stroke: #000080; fill: #000080;}

			.story-point[data-point='2']:hover path,
			.story-point[data-point='2'].active path { stroke: #191970; fill: #191970;}

			.story-point[data-point='3']:hover path,
			.story-point[data-point='3'].active path { stroke: #00FA9A; fill: #00FA9A;}

			.story-point[data-point='4']:hover path,
			.story-point[data-point='4'].active path { stroke: #00FF00; fill: #00FF00;}

			.story-point[data-point='5']:hover path,
			.story-point[data-point='5'].active path { stroke: #ADD8E6; fill: #ADD8E6;}

			.story-point[data-point='6']:hover path,
			.story-point[data-point='6'].active path { stroke: #E6E6FA; fill: #E6E6FA;}

			.story-point[data-point='7']:hover path,
			.story-point[data-point='7'].active path { stroke: #ADFF2F; fill: #ADFF2F;}

			.story-point[data-point='8']:hover path,
			.story-point[data-point='8'].active path { stroke: #00BFFF; fill: #00BFFF;}

			.story-point[data-point='9']:hover path,
			.story-point[data-point='9'].active path { stroke: #483D8B; fill: #483D8B;}

			.story-point[data-point='10']:hover path,
			.story-point[data-point='10'].active path { stroke: #FF8C00; fill: #FF8C00;}

			.story-point[data-point='11']:hover path,
			.story-point[data-point='11'].active path { stroke: #006400; fill: #006400;}
		]]></style>
	</defs>

<g class="story-point" data-point="11">
	<path fill="#FFFFFF" stroke="#000000" stroke-width="2" stroke-miterlimit="10" d="M376.914,15.157c-0.777,0.777-2.051,0.777-2.828,0
		l-4.243-4.243c-0.777-0.777-0.777-2.05,0-2.828l4.243-4.243c0.777-0.778,2.051-0.778,2.828,0l4.243,4.243
		c0.777,0.778,0.777,2.051,0,2.828L376.914,15.157z"/>
</g>
<g class="story-point" data-point="10">
	<path fill="#FFFFFF" stroke="#000000" stroke-width="2" stroke-miterlimit="10" d="M342.914,15.157c-0.777,0.777-2.051,0.777-2.828,0
		l-4.243-4.243c-0.777-0.777-0.777-2.05,0-2.828l4.243-4.243c0.777-0.778,2.051-0.778,2.828,0l4.243,4.243
		c0.777,0.778,0.777,2.051,0,2.828L342.914,15.157z"/>
</g>
<g class="story-point" data-point="9">
	<path fill="#FFFFFF" stroke="#000000" stroke-width="2" stroke-miterlimit="10" d="M308.914,15.157c-0.777,0.777-2.051,0.777-2.828,0
		l-4.243-4.243c-0.777-0.777-0.777-2.05,0-2.828l4.243-4.243c0.777-0.778,2.051-0.778,2.828,0l4.243,4.243
		c0.777,0.778,0.777,2.051,0,2.828L308.914,15.157z"/>
</g>
<g class="story-point" data-point="8">
	<path fill="#FFFFFF" stroke="#000000" stroke-width="2" stroke-miterlimit="10" d="M272.914,15.157c-0.778,0.777-2.05,0.777-2.828,0
		l-4.243-4.243c-0.778-0.777-0.778-2.05,0-2.828l4.243-4.243c0.778-0.778,2.05-0.778,2.828,0l4.243,4.243
		c0.778,0.778,0.778,2.051,0,2.828L272.914,15.157z"/>
</g>
<g class="story-point" data-point="7">
	<path fill="#FFFFFF" stroke="#000000" stroke-width="2" stroke-miterlimit="10" d="M238.914,15.157c-0.778,0.777-2.05,0.777-2.828,0
		l-4.243-4.243c-0.778-0.777-0.778-2.05,0-2.828l4.243-4.243c0.778-0.778,2.05-0.778,2.828,0l4.243,4.243
		c0.778,0.778,0.778,2.051,0,2.828L238.914,15.157z"/>
</g>
<g class="story-point" data-point="6">
	<path fill="#FFFFFF" stroke="#000000" stroke-width="2" stroke-miterlimit="10" d="M204.914,15.157c-0.778,0.777-2.05,0.777-2.828,0
		l-4.243-4.243c-0.778-0.777-0.778-2.05,0-2.828l4.243-4.243c0.778-0.778,2.05-0.778,2.828,0l4.243,4.243
		c0.778,0.778,0.778,2.051,0,2.828L204.914,15.157z"/>
</g>
<g class="story-point" data-point="5">
	<path fill="#FFFFFF" stroke="#000000" stroke-width="2" stroke-miterlimit="10" d="M170.914,15.157c-0.778,0.777-2.05,0.777-2.828,0
		l-4.243-4.243c-0.778-0.777-0.778-2.05,0-2.828l4.243-4.243c0.778-0.778,2.05-0.778,2.828,0l4.243,4.243
		c0.778,0.778,0.778,2.051,0,2.828L170.914,15.157z"/>
</g>
<g class="story-point" data-point="4">
	<path fill="#FFFFFF" stroke="#000000" stroke-width="2" stroke-miterlimit="10" d="M136.914,15.157c-0.778,0.777-2.05,0.777-2.828,0
		l-4.243-4.243c-0.778-0.777-0.778-2.05,0-2.828l4.243-4.243c0.778-0.778,2.05-0.778,2.828,0l4.243,4.243
		c0.778,0.778,0.778,2.051,0,2.828L136.914,15.157z"/>
</g>
<g class="story-point" data-point="3">
	<path fill="#FFFFFF" stroke="#000000" stroke-width="2" stroke-miterlimit="10" d="M102.914,15.157c-0.778,0.777-2.05,0.777-2.828,0
		l-4.243-4.243c-0.778-0.777-0.778-2.05,0-2.828l4.243-4.243c0.778-0.778,2.05-0.778,2.828,0l4.243,4.243
		c0.778,0.778,0.778,2.051,0,2.828L102.914,15.157z"/>
</g>
<g class="story-point" data-point="2">
	<path fill="#FFFFFF" stroke="#000000" stroke-width="2" stroke-miterlimit="10" d="M68.914,15.157c-0.778,0.777-2.05,0.777-2.828,0
		l-4.243-4.243c-0.778-0.777-0.778-2.05,0-2.828l4.243-4.243c0.778-0.778,2.05-0.778,2.828,0l4.243,4.243
		c0.778,0.778,0.778,2.051,0,2.828L68.914,15.157z"/>
</g>
<g class="story-point" data-point="1">
	<path fill="#FFFFFF" stroke="#000000" stroke-width="2" stroke-miterlimit="10" d="M34.914,15.157c-0.778,0.777-2.05,0.777-2.828,0
		l-4.243-4.243c-0.778-0.777-0.778-2.05,0-2.828l4.243-4.243c0.778-0.778,2.05-0.778,2.828,0l4.243,4.243
		c0.778,0.778,0.778,2.051,0,2.828L34.914,15.157z"/>
</g>
</svg>
