<?xml version="1.0" encoding="utf-8"?>
<!-- Generator: Adobe Illustrator 16.0.0, SVG Export Plug-In . SVG Version: 6.00 Build 0)  -->
<!DOCTYPE svg PUBLIC "-//W3C//DTD SVG 1.1//EN" "http://www.w3.org/Graphics/SVG/1.1/DTD/svg11.dtd">
<svg version="1.1" id="Layer_1" xmlns="http://www.w3.org/2000/svg" xmlns:xlink="http://www.w3.org/1999/xlink" x="0px" y="0px"
	 width="61px" height="28px" viewBox="0 0 61 28" enable-background="new 0 0 61 28" xml:space="preserve">
<g>
	<path d="M27.501,4.791c-0.177-0.064-0.371-0.063-0.55-0.001l-0.06,0.022L26.831,4.79c-0.084-0.032-0.183-0.047-0.301-0.048
		c-0.009,0-1.244,0.033-2.822,0.197l-0.075,0.009l-0.058-0.05C22.517,3.982,21.308,3.5,19.898,3.5c-3.139,0-5.624,2.501-5.624,5.577
		v0.19l-0.288-0.023C7.96,8.501,5.5,4.932,5.399,4.779C5.258,4.561,4.98,4.426,4.71,4.426L4.646,4.428
		C4.359,4.45,4.104,4.625,3.988,4.884c-3.332,7.533,2.067,12.617,4.545,14.454l0.191,0.143l-0.202,0.133
		c-0.862,0.563-2.318,1.236-4.364,1.236c-0.417,0-0.847-0.029-1.278-0.084c-0.04-0.007-0.077-0.01-0.114-0.01
		c-0.323,0-0.613,0.204-0.723,0.51c-0.121,0.338,0.019,0.719,0.332,0.902c0.042,0.023,4.075,2.332,8.93,2.332
		c3.769,0,7.023-1.354,9.673-4.025c4.407-4.443,4.999-8.381,4.72-10.901L25.689,9.49l0.062-0.057c1.172-1.086,2.038-3.242,2.2-3.662
		C28.103,5.377,27.9,4.938,27.501,4.791z M25.903,6.544C25.597,7.139,25,8.186,24.457,8.506c-0.274,0.162-0.417,0.467-0.365,0.776
		c0.387,2.288-0.033,5.903-4.228,10.133c-2.377,2.396-5.281,3.61-8.635,3.61c-1.433,0-2.93-0.226-4.446-0.668l-0.575-0.17
		l0.578-0.155c2.48-0.669,3.774-2.106,3.787-2.12c0.156-0.173,0.224-0.402,0.188-0.629c-0.037-0.223-0.179-0.422-0.378-0.536
		c-0.313-0.179-7.639-4.437-5.515-11.783l0.08-0.276l0.207,0.203c1.383,1.35,4.491,3.66,9.768,3.973l0.05,0.002
		c0.223,0,0.443-0.102,0.59-0.268c0.156-0.181,0.217-0.428,0.166-0.66c-0.061-0.258-0.091-0.539-0.091-0.836
		c0-2.25,1.868-4.08,4.165-4.08c1.137,0,2.199,0.443,2.995,1.25c0.16,0.164,0.404,0.244,0.652,0.228
		c0.938-0.108,1.764-0.168,2.29-0.2l0.299-0.018L25.903,6.544z"/>
</g>
<g>
	<path fill="#2BBCA0" d="M58.501,4.291C58.323,4.227,58.13,4.228,57.95,4.29L57.89,4.312L57.829,4.29
		c-0.084-0.032-0.182-0.047-0.301-0.048c-0.01,0-1.244,0.033-2.822,0.198l-0.074,0.008l-0.059-0.049C53.515,3.483,52.237,3,50.829,3
		c-3.139,0-5.691,2.501-5.691,5.577v0.19l-0.221-0.023c-6.025-0.743-8.453-4.312-8.553-4.464c-0.143-0.219-0.402-0.354-0.672-0.354
		l-0.057,0.002c-0.287,0.022-0.537,0.197-0.652,0.456c-3.331,7.533,2.068,12.617,4.547,14.455l0.191,0.144l-0.201,0.132
		c-0.861,0.563-2.316,1.235-4.361,1.237c-0.418,0-0.85-0.029-1.277-0.086c-0.041-0.006-0.078-0.009-0.115-0.009
		c-0.322,0-0.611,0.204-0.723,0.509c-0.121,0.34,0.02,0.719,0.332,0.903C33.417,21.691,37.45,24,42.304,24
		c3.77,0,7.023-1.354,9.672-4.025c4.408-4.443,5-8.381,4.721-10.901L56.688,8.99l0.061-0.057c1.172-1.086,2.039-3.242,2.201-3.662
		C59.101,4.877,58.899,4.438,58.501,4.291z M56.903,6.044c-0.309,0.595-0.904,1.641-1.447,1.962
		c-0.275,0.162-0.418,0.466-0.365,0.776c0.387,2.289-0.033,5.903-4.229,10.133c-2.377,2.396-5.281,3.608-8.635,3.608
		c-1.434,0-2.93-0.225-4.445-0.668l-0.574-0.168l0.578-0.156c2.479-0.67,3.771-2.106,3.785-2.12
		c0.156-0.173,0.225-0.402,0.188-0.629c-0.037-0.224-0.178-0.423-0.377-0.536c-0.313-0.18-7.639-4.437-5.516-11.783l0.08-0.276
		l0.207,0.202c1.385,1.35,4.49,3.661,9.768,3.973l0.051,0.002c0.223,0,0.443-0.101,0.59-0.268c0.156-0.18,0.217-0.427,0.166-0.66
		c-0.061-0.257-0.092-0.539-0.092-0.836c0-2.25,1.869-4.08,4.166-4.08c1.137,0,2.199,0.444,2.994,1.251
		c0.16,0.164,0.404,0.243,0.652,0.227c0.938-0.108,1.764-0.168,2.291-0.2l0.299-0.018L56.903,6.044z"/>
</g>
</svg>
