<?xml version="1.0" encoding="utf-8"?>
<!-- Generator: Adobe Illustrator 16.0.0, SVG Export Plug-In . SVG Version: 6.00 Build 0)  -->
<!DOCTYPE svg PUBLIC "-//W3C//DTD SVG 1.1//EN" "http://www.w3.org/Graphics/SVG/1.1/DTD/svg11.dtd">
<svg version="1.1" id="Layer_1" xmlns="http://www.w3.org/2000/svg" xmlns:xlink="http://www.w3.org/1999/xlink" x="0px" y="0px"
	 width="61px" height="28px" viewBox="0 0 61 28" enable-background="new 0 0 61 28" xml:space="preserve">
<g>
	<path d="M26.75,2h-13c-0.275,0-0.5-0.224-0.5-0.5S13.475,1,13.75,1h13c0.275,0,0.5,0.224,0.5,0.5S27.025,2,26.75,2z"/>
	<path d="M26.75,4h-13c-0.275,0-0.5-0.224-0.5-0.5S13.475,3,13.75,3h13c0.275,0,0.5,0.224,0.5,0.5S27.025,4,26.75,4z"/>
	<path d="M21.75,6h-8c-0.275,0-0.5-0.225-0.5-0.5S13.475,5,13.75,5h8c0.275,0,0.5,0.225,0.5,0.5S22.025,6,21.75,6z"/>
	<path d="M26.75,12h-13c-0.275,0-0.5-0.225-0.5-0.5s0.225-0.5,0.5-0.5h13c0.275,0,0.5,0.225,0.5,0.5S27.025,12,26.75,12z"/>
	<path d="M26.75,14h-13c-0.275,0-0.5-0.225-0.5-0.5s0.225-0.5,0.5-0.5h13c0.275,0,0.5,0.225,0.5,0.5S27.025,14,26.75,14z"/>
	<path d="M21.75,16h-8c-0.275,0-0.5-0.225-0.5-0.5s0.225-0.5,0.5-0.5h8c0.275,0,0.5,0.225,0.5,0.5S22.025,16,21.75,16z"/>
	<path d="M26.75,22h-13c-0.275,0-0.5-0.225-0.5-0.5s0.225-0.5,0.5-0.5h13c0.275,0,0.5,0.225,0.5,0.5S27.025,22,26.75,22z"/>
	<path d="M26.75,24h-13c-0.275,0-0.5-0.225-0.5-0.5s0.225-0.5,0.5-0.5h13c0.275,0,0.5,0.225,0.5,0.5S27.025,24,26.75,24z"/>
	<path d="M21.75,26h-8c-0.275,0-0.5-0.225-0.5-0.5s0.225-0.5,0.5-0.5h8c0.275,0,0.5,0.225,0.5,0.5S22.025,26,21.75,26z"/>
	<path d="M8.55,8h-3.6c-1.214,0-2.2-0.986-2.2-2.2V2.2c0-1.213,0.986-2.2,2.2-2.2h3.6c1.214,0,2.2,0.987,2.2,2.2v3.6
		C10.75,7.014,9.764,8,8.55,8z M4.95,2c-0.108,0-0.2,0.092-0.2,0.2v3.6c0,0.108,0.092,0.2,0.2,0.2h3.6c0.108,0,0.2-0.092,0.2-0.2
		V2.2c0-0.108-0.092-0.2-0.2-0.2H4.95z"/>
	<path d="M8.55,18h-3.6c-1.214,0-2.2-0.986-2.2-2.2v-3.6c0-1.214,0.986-2.2,2.2-2.2h3.6c1.214,0,2.2,0.986,2.2,2.2v3.6
		C10.75,17.014,9.764,18,8.55,18z M4.95,12c-0.108,0-0.2,0.092-0.2,0.2v3.6c0,0.108,0.092,0.2,0.2,0.2h3.6
		c0.108,0,0.2-0.092,0.2-0.2v-3.6c0-0.108-0.092-0.2-0.2-0.2H4.95z"/>
	<path d="M8.55,28h-3.6c-1.214,0-2.2-0.986-2.2-2.2v-3.6c0-1.214,0.986-2.2,2.2-2.2h3.6c1.214,0,2.2,0.986,2.2,2.2v3.6
		C10.75,27.014,9.764,28,8.55,28z M4.95,22c-0.108,0-0.2,0.092-0.2,0.2v3.6c0,0.108,0.092,0.2,0.2,0.2h3.6
		c0.108,0,0.2-0.092,0.2-0.2v-3.6c0-0.108-0.092-0.2-0.2-0.2H4.95z"/>
</g>
<g>
	<path fill="#2BBCA0" d="M57.75,2h-13c-0.275,0-0.5-0.224-0.5-0.5S44.475,1,44.75,1h13c0.275,0,0.5,0.224,0.5,0.5S58.025,2,57.75,2z
		"/>
	<path fill="#2BBCA0" d="M57.75,4h-13c-0.275,0-0.5-0.224-0.5-0.5S44.475,3,44.75,3h13c0.275,0,0.5,0.224,0.5,0.5S58.025,4,57.75,4z
		"/>
	<path fill="#2BBCA0" d="M52.75,6h-8c-0.275,0-0.5-0.225-0.5-0.5S44.475,5,44.75,5h8c0.275,0,0.5,0.225,0.5,0.5S53.025,6,52.75,6z"
		/>
	<path fill="#2BBCA0" d="M57.75,12h-13c-0.275,0-0.5-0.225-0.5-0.5s0.225-0.5,0.5-0.5h13c0.275,0,0.5,0.225,0.5,0.5
		S58.025,12,57.75,12z"/>
	<path fill="#2BBCA0" d="M57.75,14h-13c-0.275,0-0.5-0.225-0.5-0.5s0.225-0.5,0.5-0.5h13c0.275,0,0.5,0.225,0.5,0.5
		S58.025,14,57.75,14z"/>
	<path fill="#2BBCA0" d="M52.75,16h-8c-0.275,0-0.5-0.225-0.5-0.5s0.225-0.5,0.5-0.5h8c0.275,0,0.5,0.225,0.5,0.5
		S53.025,16,52.75,16z"/>
	<path fill="#2BBCA0" d="M57.75,22h-13c-0.275,0-0.5-0.225-0.5-0.5s0.225-0.5,0.5-0.5h13c0.275,0,0.5,0.225,0.5,0.5
		S58.025,22,57.75,22z"/>
	<path fill="#2BBCA0" d="M57.75,24h-13c-0.275,0-0.5-0.225-0.5-0.5s0.225-0.5,0.5-0.5h13c0.275,0,0.5,0.225,0.5,0.5
		S58.025,24,57.75,24z"/>
	<path fill="#2BBCA0" d="M52.75,26h-8c-0.275,0-0.5-0.225-0.5-0.5s0.225-0.5,0.5-0.5h8c0.275,0,0.5,0.225,0.5,0.5
		S53.025,26,52.75,26z"/>
	<path fill="#2BBCA0" d="M39.55,8h-3.6c-1.214,0-2.2-0.986-2.2-2.2V2.2c0-1.213,0.986-2.2,2.2-2.2h3.6c1.214,0,2.2,0.987,2.2,2.2
		v3.6C41.75,7.014,40.764,8,39.55,8z M35.95,2c-0.108,0-0.2,0.092-0.2,0.2v3.6c0,0.108,0.092,0.2,0.2,0.2h3.6
		c0.108,0,0.2-0.092,0.2-0.2V2.2c0-0.108-0.092-0.2-0.2-0.2H35.95z"/>
	<path fill="#2BBCA0" d="M39.55,18h-3.6c-1.214,0-2.2-0.986-2.2-2.2v-3.6c0-1.214,0.986-2.2,2.2-2.2h3.6c1.214,0,2.2,0.986,2.2,2.2
		v3.6C41.75,17.014,40.764,18,39.55,18z M35.95,12c-0.108,0-0.2,0.092-0.2,0.2v3.6c0,0.108,0.092,0.2,0.2,0.2h3.6
		c0.108,0,0.2-0.092,0.2-0.2v-3.6c0-0.108-0.092-0.2-0.2-0.2H35.95z"/>
	<path fill="#2BBCA0" d="M39.55,28h-3.6c-1.214,0-2.2-0.986-2.2-2.2v-3.6c0-1.214,0.986-2.2,2.2-2.2h3.6c1.214,0,2.2,0.986,2.2,2.2
		v3.6C41.75,27.014,40.764,28,39.55,28z M35.95,22c-0.108,0-0.2,0.092-0.2,0.2v3.6c0,0.108,0.092,0.2,0.2,0.2h3.6
		c0.108,0,0.2-0.092,0.2-0.2v-3.6c0-0.108-0.092-0.2-0.2-0.2H35.95z"/>
</g>
</svg>
