<?xml version="1.0" encoding="utf-8"?>
<!-- Generator: Adobe Illustrator 16.0.0, SVG Export Plug-In . SVG Version: 6.00 Build 0)  -->
<!DOCTYPE svg PUBLIC "-//W3C//DTD SVG 1.1//EN" "http://www.w3.org/Graphics/SVG/1.1/DTD/svg11.dtd">
<svg version="1.1" id="Layer_1" xmlns="http://www.w3.org/2000/svg" xmlns:xlink="http://www.w3.org/1999/xlink" x="0px" y="0px"
	 width="50.5px" height="28px" viewBox="0 0 50.5 28" enable-background="new 0 0 50.5 28" xml:space="preserve">
<g>
	<path d="M24,2H11c-0.276,0-0.5-0.224-0.5-0.5S10.724,1,11,1h13c0.276,0,0.5,0.224,0.5,0.5S24.276,2,24,2z"/>
	<path d="M24,4H11c-0.276,0-0.5-0.224-0.5-0.5S10.724,3,11,3h13c0.276,0,0.5,0.224,0.5,0.5S24.276,4,24,4z"/>
	<path d="M19,6h-8c-0.276,0-0.5-0.224-0.5-0.5S10.724,5,11,5h8c0.276,0,0.5,0.224,0.5,0.5S19.276,6,19,6z"/>
	<path d="M24,12H11c-0.276,0-0.5-0.224-0.5-0.5S10.724,11,11,11h13c0.276,0,0.5,0.224,0.5,0.5S24.276,12,24,12z"/>
	<path d="M24,14H11c-0.276,0-0.5-0.224-0.5-0.5S10.724,13,11,13h13c0.276,0,0.5,0.224,0.5,0.5S24.276,14,24,14z"/>
	<path d="M19,16h-8c-0.276,0-0.5-0.224-0.5-0.5S10.724,15,11,15h8c0.276,0,0.5,0.224,0.5,0.5S19.276,16,19,16z"/>
	<path d="M24,22H11c-0.276,0-0.5-0.224-0.5-0.5S10.724,21,11,21h13c0.276,0,0.5,0.224,0.5,0.5S24.276,22,24,22z"/>
	<path d="M24,24H11c-0.276,0-0.5-0.224-0.5-0.5S10.724,23,11,23h13c0.276,0,0.5,0.224,0.5,0.5S24.276,24,24,24z"/>
	<path d="M19,26h-8c-0.276,0-0.5-0.224-0.5-0.5S10.724,25,11,25h8c0.276,0,0.5,0.224,0.5,0.5S19.276,26,19,26z"/>
	<path d="M5.8,8H2.2C0.987,8,0,7.013,0,5.8V2.2C0,0.987,0.987,0,2.2,0h3.6C7.013,0,8,0.987,8,2.2v3.6C8,7.013,7.013,8,5.8,8z M2.2,2
		C2.092,2,2,2.092,2,2.2v3.6C2,5.908,2.092,6,2.2,6h3.6C5.908,6,6,5.908,6,5.8V2.2C6,2.092,5.908,2,5.8,2H2.2z"/>
	<path d="M5.8,18H2.2C0.987,18,0,17.014,0,15.8v-3.6C0,10.987,0.987,10,2.2,10h3.6C7.013,10,8,10.987,8,12.2v3.6
		C8,17.014,7.013,18,5.8,18z M2.2,12C2.092,12,2,12.092,2,12.2v3.6C2,15.908,2.092,16,2.2,16h3.6C5.908,16,6,15.908,6,15.8v-3.6
		C6,12.092,5.908,12,5.8,12H2.2z"/>
	<path d="M5.8,28H2.2C0.987,28,0,27.013,0,25.8v-3.6C0,20.987,0.987,20,2.2,20h3.6C7.013,20,8,20.987,8,22.2v3.6
		C8,27.013,7.013,28,5.8,28z M2.2,22C2.092,22,2,22.092,2,22.2v3.6C2,25.908,2.092,26,2.2,26h3.6C5.908,26,6,25.908,6,25.8v-3.6
		C6,22.092,5.908,22,5.8,22H2.2z"/>
</g>
<g>
	<path fill="#2BBCA0" d="M50,2H37c-0.276,0-0.5-0.224-0.5-0.5S36.724,1,37,1h13c0.276,0,0.5,0.224,0.5,0.5S50.276,2,50,2z"/>
	<path fill="#2BBCA0" d="M50,4H37c-0.276,0-0.5-0.224-0.5-0.5S36.724,3,37,3h13c0.276,0,0.5,0.224,0.5,0.5S50.276,4,50,4z"/>
	<path fill="#2BBCA0" d="M45,6h-8c-0.276,0-0.5-0.224-0.5-0.5S36.724,5,37,5h8c0.276,0,0.5,0.224,0.5,0.5S45.276,6,45,6z"/>
	<path fill="#2BBCA0" d="M50,12H37c-0.276,0-0.5-0.224-0.5-0.5S36.724,11,37,11h13c0.276,0,0.5,0.224,0.5,0.5S50.276,12,50,12z"/>
	<path fill="#2BBCA0" d="M50,14H37c-0.276,0-0.5-0.224-0.5-0.5S36.724,13,37,13h13c0.276,0,0.5,0.224,0.5,0.5S50.276,14,50,14z"/>
	<path fill="#2BBCA0" d="M45,16h-8c-0.276,0-0.5-0.224-0.5-0.5S36.724,15,37,15h8c0.276,0,0.5,0.224,0.5,0.5S45.276,16,45,16z"/>
	<path fill="#2BBCA0" d="M50,22H37c-0.276,0-0.5-0.224-0.5-0.5S36.724,21,37,21h13c0.276,0,0.5,0.224,0.5,0.5S50.276,22,50,22z"/>
	<path fill="#2BBCA0" d="M50,24H37c-0.276,0-0.5-0.224-0.5-0.5S36.724,23,37,23h13c0.276,0,0.5,0.224,0.5,0.5S50.276,24,50,24z"/>
	<path fill="#2BBCA0" d="M45,26h-8c-0.276,0-0.5-0.224-0.5-0.5S36.724,25,37,25h8c0.276,0,0.5,0.224,0.5,0.5S45.276,26,45,26z"/>
	<path fill="#2BBCA0" d="M31.8,8h-3.6C26.986,8,26,7.013,26,5.8V2.2C26,0.987,26.986,0,28.2,0h3.6C33.014,0,34,0.987,34,2.2v3.6
		C34,7.013,33.014,8,31.8,8z M28.2,2C28.092,2,28,2.092,28,2.2v3.6C28,5.908,28.092,6,28.2,6h3.6C31.908,6,32,5.908,32,5.8V2.2
		C32,2.092,31.908,2,31.8,2H28.2z"/>
	<path fill="#2BBCA0" d="M31.8,18h-3.6c-1.214,0-2.2-0.986-2.2-2.2v-3.6c0-1.213,0.986-2.2,2.2-2.2h3.6c1.214,0,2.2,0.987,2.2,2.2
		v3.6C34,17.014,33.014,18,31.8,18z M28.2,12c-0.108,0-0.2,0.092-0.2,0.2v3.6c0,0.108,0.092,0.2,0.2,0.2h3.6
		c0.108,0,0.2-0.092,0.2-0.2v-3.6c0-0.108-0.092-0.2-0.2-0.2H28.2z"/>
	<path fill="#2BBCA0" d="M31.8,28h-3.6c-1.214,0-2.2-0.987-2.2-2.2v-3.6c0-1.213,0.986-2.2,2.2-2.2h3.6c1.214,0,2.2,0.987,2.2,2.2
		v3.6C34,27.013,33.014,28,31.8,28z M28.2,22c-0.108,0-0.2,0.092-0.2,0.2v3.6c0,0.108,0.092,0.2,0.2,0.2h3.6
		c0.108,0,0.2-0.092,0.2-0.2v-3.6c0-0.108-0.092-0.2-0.2-0.2H28.2z"/>
</g>
</svg>
