<?xml version="1.0" encoding="utf-8"?>
<!-- Generator: Adobe Illustrator 16.0.0, SVG Export Plug-In . SVG Version: 6.00 Build 0)  -->
<!DOCTYPE svg PUBLIC "-//W3C//DTD SVG 1.1//EN" "http://www.w3.org/Graphics/SVG/1.1/DTD/svg11.dtd">
<svg version="1.1" id="Layer_1" xmlns="http://www.w3.org/2000/svg" xmlns:xlink="http://www.w3.org/1999/xlink" x="0px" y="0px"
	 width="22px" height="13px" viewBox="0 0 22 13" enable-background="new 0 0 22 13" xml:space="preserve">
<g>
	<path fill="#2BBCA0" d="M16.372,7.534H1.023C0.458,7.534,0,7.089,0,6.534s0.458-1,1.023-1h15.349c0.565,0,1.023,0.445,1.023,1
		S16.938,7.534,16.372,7.534z"/>
	<path fill="#2BBCA0" d="M15.419,13c-0.131,0-0.262-0.049-0.362-0.147c-0.199-0.196-0.199-0.515,0-0.711l6.07-5.962
		c0.199-0.197,0.523-0.197,0.724,0c0.199,0.196,0.199,0.514,0,0.71l-6.07,5.963C15.681,12.951,15.55,13,15.419,13z"/>
	<path fill="#2BBCA0" d="M21.488,6.968c-0.131,0-0.262-0.049-0.361-0.147l-6.07-5.962c-0.199-0.196-0.199-0.515,0-0.711
		c0.2-0.196,0.524-0.196,0.724,0l6.07,5.963c0.199,0.196,0.199,0.514,0,0.71C21.75,6.919,21.619,6.968,21.488,6.968z"/>
</g>
</svg>
