<?xml version="1.0" encoding="utf-8"?>
<!-- Generator: Adobe Illustrator 16.0.0, SVG Export Plug-In . SVG Version: 6.00 Build 0)  -->
<!DOCTYPE svg PUBLIC "-//W3C//DTD SVG 1.1//EN" "http://www.w3.org/Graphics/SVG/1.1/DTD/svg11.dtd">
<svg version="1.1" id="Layer_1" xmlns="http://www.w3.org/2000/svg" xmlns:xlink="http://www.w3.org/1999/xlink" x="0px" y="0px"
	 width="61px" height="28px" viewBox="0 0 61 28" enable-background="new 0 0 61 28" xml:space="preserve">
<g>
	<path d="M24.073,21.5H11.927c-2.441,0-4.427-1.986-4.427-4.428V4.927C7.5,2.486,9.486,0.5,11.927,0.5h12.146
		c2.441,0,4.427,1.986,4.427,4.427v12.146C28.5,19.514,26.514,21.5,24.073,21.5z M11.927,1.5C10.037,1.5,8.5,3.038,8.5,4.927v12.146
		c0,1.891,1.537,3.428,3.427,3.428h12.146c1.89,0,3.427-1.537,3.427-3.428V4.927c0-1.889-1.537-3.427-3.427-3.427H11.927z"/>
	<g>
		<g>
			<path fill="#FFFFFF" d="M19.624,25.531c-0.568,0.541-2.556,0.969-4.607,0.969h-6.35c-2.051,0-4.226-0.598-4.949-1.344
				C2.995,24.408,2.5,22.133,2.5,20.082V13.98c0-2.051,0.418-4.412,1.046-5.105C4.175,8.182,6.272,7.5,8.323,7.5h6.791
				c2.051,0,4.018,0.576,4.558,1.141c0.54,0.565,0.828,2.819,0.828,4.87v7.321C20.5,22.883,20.19,24.99,19.624,25.531z"/>
		</g>
		<path d="M17.77,27.5H6.23c-2.608,0-4.73-2.123-4.73-4.73V11.23c0-2.608,2.122-4.73,4.73-4.73h11.54c2.608,0,4.73,2.122,4.73,4.73
			V22.77C22.5,25.377,20.378,27.5,17.77,27.5z M6.23,8.5c-1.505,0-2.73,1.225-2.73,2.73V22.77c0,1.506,1.225,2.73,2.73,2.73h11.54
			c1.506,0,2.73-1.225,2.73-2.73V11.23c0-1.506-1.225-2.73-2.73-2.73H6.23z"/>
	</g>
	<path d="M6.712,21.51h6.301c0.533-0.002,0.965-0.434,0.966-0.967v-5.506c-0.001-0.531-0.433-0.962-0.966-0.964H6.712
		c-0.531,0.002-0.963,0.433-0.965,0.964v5.506C5.749,21.076,6.181,21.508,6.712,21.51z M6.52,15.037c0-0.05,0.021-0.097,0.058-0.134
		c0.036-0.037,0.082-0.057,0.135-0.057h6.301c0.053,0,0.1,0.02,0.136,0.057c0.037,0.037,0.057,0.084,0.058,0.134v5.506
		c0,0.055-0.021,0.102-0.058,0.137c-0.036,0.035-0.083,0.057-0.136,0.059H6.712c-0.053,0-0.099-0.021-0.135-0.059
		c-0.037-0.035-0.057-0.082-0.058-0.137L6.52,15.037L6.52,15.037z"/>
	<path d="M15.47,16.143c-0.224,0.113-0.393,0.295-0.518,0.498c-0.123,0.203-0.207,0.434-0.209,0.688v1.121
		c0.002,0.258,0.09,0.488,0.223,0.689c0.134,0.197,0.312,0.367,0.549,0.471l2.162,1.297c0.109,0.045,0.225,0.07,0.342,0.07
		c0.198,0.002,0.401-0.084,0.536-0.236c0.135-0.152,0.192-0.35,0.192-0.545v-4.826c0-0.186-0.051-0.371-0.176-0.521
		c-0.062-0.074-0.143-0.139-0.234-0.178c-0.09-0.041-0.187-0.061-0.281-0.061c-0.137,0-0.266,0.037-0.386,0.1L15.47,16.143
		L15.47,16.143z M15.815,18.896c-0.059-0.023-0.145-0.094-0.205-0.189c-0.062-0.09-0.095-0.199-0.093-0.26v-1.121
		c-0.002-0.066,0.03-0.186,0.095-0.285c0.061-0.102,0.149-0.186,0.211-0.211l2.154-1.412v4.773L15.815,18.896L15.815,18.896z"/>
</g>
<g>
	<path fill="#2BBCA0" d="M55.073,21.5H42.927c-2.44,0-4.427-1.986-4.427-4.428V4.926c0-2.441,1.986-4.427,4.427-4.427h12.146
		c2.44,0,4.427,1.986,4.427,4.427v12.146C59.5,19.514,57.514,21.5,55.073,21.5z M42.927,1.5c-1.89,0-3.427,1.538-3.427,3.427v12.146
		c0,1.891,1.537,3.428,3.427,3.428h12.146c1.89,0,3.427-1.537,3.427-3.428V4.926c0-1.889-1.537-3.427-3.427-3.427H42.927z"/>
	<g>
		<g>
			<path fill="#FFFFFF" d="M50.623,25.531c-0.568,0.541-2.557,0.969-4.607,0.969h-6.348c-2.052,0-4.227-0.598-4.949-1.344
				c-0.722-0.748-1.219-3.023-1.219-5.074v-6.103c0-2.051,0.418-4.411,1.047-5.105S37.271,7.5,39.324,7.5h6.789
				c2.052,0,4.018,0.576,4.559,1.141s0.828,2.819,0.828,4.87v7.322C51.5,22.883,51.191,24.99,50.623,25.531z"/>
		</g>
		<path fill="#2BBCA0" d="M48.77,27.5H37.23c-2.608,0-4.73-2.123-4.73-4.73v-11.54c0-2.608,2.122-4.73,4.73-4.73H48.77
			c2.608,0,4.73,2.122,4.73,4.73v11.54C53.5,25.377,51.378,27.5,48.77,27.5z M37.23,8.5c-1.506,0-2.73,1.225-2.73,2.73v11.54
			c0,1.506,1.225,2.73,2.73,2.73H48.77c1.506,0,2.73-1.225,2.73-2.73v-11.54c0-1.505-1.225-2.73-2.73-2.73H37.23z"/>
	</g>
	<path fill="#2BBCA0" d="M37.712,21.51h6.302c0.532-0.002,0.965-0.434,0.965-0.967v-5.506c0-0.531-0.433-0.962-0.965-0.964h-6.302
		c-0.53,0.002-0.963,0.434-0.965,0.964v5.506C36.749,21.076,37.182,21.508,37.712,21.51z M37.52,15.037
		c0-0.051,0.021-0.098,0.059-0.135c0.035-0.036,0.082-0.057,0.135-0.057h6.301c0.053,0,0.1,0.021,0.137,0.057
		c0.037,0.037,0.057,0.084,0.058,0.135v5.506c0,0.055-0.021,0.102-0.058,0.137s-0.084,0.057-0.137,0.059h-6.301
		c-0.053,0-0.1-0.021-0.135-0.059c-0.037-0.035-0.057-0.082-0.059-0.137V15.037L37.52,15.037z"/>
	<path fill="#2BBCA0" d="M46.471,16.143c-0.225,0.113-0.394,0.295-0.519,0.498c-0.123,0.203-0.207,0.434-0.209,0.688v1.121
		c0.002,0.258,0.09,0.488,0.223,0.689c0.134,0.197,0.312,0.367,0.55,0.471l2.161,1.297c0.109,0.045,0.226,0.07,0.343,0.07
		c0.197,0.002,0.4-0.084,0.535-0.236s0.192-0.35,0.192-0.545v-4.826c0-0.186-0.052-0.372-0.177-0.522
		c-0.062-0.074-0.143-0.138-0.233-0.178c-0.09-0.04-0.187-0.061-0.28-0.061c-0.138,0-0.267,0.037-0.387,0.1L46.471,16.143
		L46.471,16.143z M46.814,18.896c-0.059-0.023-0.145-0.094-0.205-0.189c-0.062-0.09-0.094-0.199-0.092-0.26v-1.121
		c-0.002-0.066,0.029-0.186,0.094-0.285c0.062-0.102,0.15-0.186,0.212-0.211l2.153-1.412v4.773L46.814,18.896L46.814,18.896z"/>
</g>
</svg>
