<?xml version="1.0" encoding="utf-8"?>
<!-- Generator: Adobe Illustrator 16.0.0, SVG Export Plug-In . SVG Version: 6.00 Build 0)  -->
<!DOCTYPE svg PUBLIC "-//W3C//DTD SVG 1.1//EN" "http://www.w3.org/Graphics/SVG/1.1/DTD/svg11.dtd">
<svg version="1.1" id="Layer_1" xmlns="http://www.w3.org/2000/svg" xmlns:xlink="http://www.w3.org/1999/xlink" x="0px" y="0px"
	 width="55px" height="27px" viewBox="0 0 55 27" enable-background="new 0 0 55 27" xml:space="preserve">
<g>
	<path d="M22.573,21H10.427C7.986,21,6,19.014,6,16.573V4.427C6,1.986,7.986,0,10.427,0h12.146C25.014,0,27,1.986,27,4.427v12.146
		C27,19.014,25.014,21,22.573,21z M10.427,1C8.537,1,7,2.538,7,4.427v12.146C7,18.463,8.537,20,10.427,20h12.146
		C24.463,20,26,18.463,26,16.573V4.427C26,2.538,24.463,1,22.573,1H10.427z"/>
	<g>
		<g>
			<path fill="#FFFFFF" d="M18.124,25.031C17.556,25.572,15.568,26,13.517,26H7.167c-2.051,0-4.226-0.597-4.949-1.344
				S1,21.634,1,19.582V13.48c0-2.051,0.418-4.411,1.046-5.105C2.675,7.681,4.772,7,6.823,7h6.791c2.051,0,4.018,0.576,4.558,1.141
				S19,10.96,19,13.011v7.321C19,22.384,18.69,24.49,18.124,25.031z"/>
		</g>
		<path d="M16.27,27H4.73C2.122,27,0,24.878,0,22.27V10.73C0,8.122,2.122,6,4.73,6H16.27C18.878,6,21,8.122,21,10.73V22.27
			C21,24.878,18.878,27,16.27,27z M4.73,8C3.225,8,2,9.225,2,10.73V22.27C2,23.775,3.225,25,4.73,25H16.27
			c1.506,0,2.73-1.225,2.73-2.73V10.73C19,9.225,17.775,8,16.27,8H4.73z"/>
	</g>
	<path d="M5.212,21.011h6.301c0.533-0.003,0.965-0.434,0.966-0.967v-5.506c-0.001-0.531-0.433-0.963-0.966-0.965H5.212
		c-0.531,0.002-0.963,0.434-0.965,0.965v5.506C4.249,20.577,4.681,21.008,5.212,21.011z M5.02,14.538
		c0-0.051,0.021-0.098,0.058-0.135c0.036-0.037,0.082-0.057,0.135-0.058h6.301c0.053,0,0.1,0.021,0.136,0.058
		c0.037,0.037,0.057,0.084,0.058,0.135v5.506c0,0.053-0.021,0.1-0.058,0.136c-0.036,0.036-0.083,0.056-0.136,0.059H5.212
		c-0.053,0-0.099-0.022-0.135-0.059c-0.037-0.036-0.057-0.083-0.058-0.136V14.538L5.02,14.538z"/>
	<path d="M13.97,15.642c-0.224,0.115-0.393,0.295-0.518,0.499c-0.123,0.203-0.207,0.434-0.209,0.687v1.121
		c0.002,0.258,0.09,0.488,0.223,0.689c0.134,0.199,0.312,0.369,0.549,0.471l2.162,1.297c0.109,0.045,0.225,0.07,0.342,0.07
		c0.198,0.003,0.401-0.084,0.536-0.235c0.135-0.152,0.192-0.35,0.192-0.546v-4.825c0-0.186-0.051-0.372-0.176-0.523
		c-0.062-0.074-0.143-0.137-0.234-0.177c-0.09-0.04-0.187-0.06-0.281-0.06c-0.137,0-0.266,0.036-0.386,0.099L13.97,15.642
		L13.97,15.642z M14.315,18.396c-0.059-0.023-0.145-0.093-0.205-0.188c-0.062-0.09-0.095-0.199-0.093-0.261v-1.121
		c-0.002-0.065,0.03-0.185,0.095-0.284c0.061-0.103,0.149-0.186,0.211-0.212l2.154-1.411v4.772L14.315,18.396L14.315,18.396z"/>
</g>
<g>
	<path fill="#2BBCA0" d="M50.573,21H38.427C35.986,21,34,19.014,34,16.573V4.427C34,1.986,35.986,0,38.427,0h12.146
		C53.014,0,55,1.986,55,4.427v12.146C55,19.014,53.014,21,50.573,21z M38.427,1C36.537,1,35,2.538,35,4.427v12.146
		C35,18.463,36.537,20,38.427,20h12.146C52.463,20,54,18.463,54,16.573V4.427C54,2.538,52.463,1,50.573,1H38.427z"/>
	<g>
		<g>
			<path fill="#FFFFFF" d="M46.123,25.031C45.555,25.572,43.567,26,41.516,26h-6.348c-2.052,0-4.227-0.597-4.949-1.344
				S29,21.634,29,19.582V13.48c0-2.051,0.418-4.411,1.047-5.105S32.772,7,34.824,7h6.789c2.052,0,4.018,0.576,4.559,1.141
				S47,10.96,47,13.011v7.321C47,22.384,46.691,24.49,46.123,25.031z"/>
		</g>
		<path fill="#2BBCA0" d="M44.27,27H32.73C30.122,27,28,24.878,28,22.27V10.73C28,8.122,30.122,6,32.73,6H44.27
			C46.878,6,49,8.122,49,10.73V22.27C49,24.878,46.878,27,44.27,27z M32.73,8C31.225,8,30,9.225,30,10.73V22.27
			c0,1.506,1.225,2.73,2.73,2.73H44.27c1.506,0,2.73-1.225,2.73-2.73V10.73C47,9.225,45.775,8,44.27,8H32.73z"/>
	</g>
	<path fill="#2BBCA0" d="M33.212,21.011h6.301c0.533-0.003,0.965-0.434,0.966-0.967v-5.506c-0.001-0.531-0.433-0.963-0.966-0.965
		h-6.301c-0.531,0.002-0.963,0.434-0.965,0.965v5.506C32.249,20.577,32.681,21.008,33.212,21.011z M33.02,14.538
		c0-0.051,0.021-0.098,0.058-0.135c0.036-0.037,0.082-0.057,0.135-0.058h6.301c0.053,0,0.1,0.021,0.136,0.058
		c0.037,0.037,0.057,0.084,0.058,0.135v5.506c0,0.053-0.021,0.1-0.058,0.136c-0.036,0.036-0.083,0.056-0.136,0.059h-6.301
		c-0.053,0-0.099-0.022-0.135-0.059c-0.037-0.036-0.057-0.083-0.058-0.136V14.538L33.02,14.538z"/>
	<path fill="#2BBCA0" d="M41.97,15.642c-0.224,0.115-0.393,0.295-0.518,0.499c-0.123,0.203-0.207,0.434-0.209,0.687v1.121
		c0.002,0.258,0.09,0.488,0.223,0.689c0.134,0.199,0.312,0.369,0.549,0.471l2.162,1.297c0.109,0.045,0.225,0.07,0.342,0.07
		c0.198,0.003,0.401-0.084,0.536-0.235c0.135-0.152,0.192-0.35,0.192-0.546v-4.825c0-0.186-0.051-0.372-0.176-0.523
		c-0.062-0.074-0.143-0.137-0.234-0.177c-0.09-0.04-0.187-0.06-0.281-0.06c-0.137,0-0.266,0.036-0.386,0.099L41.97,15.642
		L41.97,15.642z M42.315,18.396c-0.059-0.023-0.145-0.093-0.205-0.188c-0.062-0.09-0.095-0.199-0.093-0.261v-1.121
		c-0.002-0.065,0.03-0.185,0.095-0.284c0.061-0.103,0.149-0.186,0.211-0.212l2.154-1.411v4.772L42.315,18.396L42.315,18.396z"/>
</g>
</svg>
