<?xml version="1.0" encoding="utf-8"?>
<!-- Generator: Adobe Illustrator 16.0.0, SVG Export Plug-In . SVG Version: 6.00 Build 0)  -->
<!DOCTYPE svg PUBLIC "-//W3C//DTD SVG 1.1//EN" "http://www.w3.org/Graphics/SVG/1.1/DTD/svg11.dtd">
<svg version="1.1" id="Layer_1" xmlns="http://www.w3.org/2000/svg" xmlns:xlink="http://www.w3.org/1999/xlink" x="0px" y="0px"
	 width="61px" height="28px" viewBox="0 0 61 28" enable-background="new 0 0 61 28" xml:space="preserve">
<g>
	<path fill="#E97728" d="M38.486,7.073V5c0-2.441,1.986-4.427,4.428-4.427H55.06c2.44,0,4.427,1.986,4.427,4.427v12.146
		c0,2.441-1.986,4.428-4.428,4.428H52.57v-1h2.488c1.891,0,3.428-1.537,3.428-3.428V5c0-1.889-1.537-3.427-3.428-3.427H42.914
		c-1.891,0-3.428,1.538-3.428,3.427v2.157L38.486,7.073z"/>
	<g>
		<path fill="#E97728" d="M48.756,27.573H37.217c-2.608,0-4.73-2.122-4.73-4.73V11.304c0-2.608,2.122-4.73,4.73-4.73h11.539
			c2.608,0,4.73,2.122,4.73,4.73v11.539C53.486,25.451,51.364,27.573,48.756,27.573z M37.217,8.573c-1.506,0-2.73,1.225-2.73,2.73
			v11.539c0,1.506,1.225,2.73,2.73,2.73h11.539c1.506,0,2.73-1.225,2.73-2.73V11.304c0-1.506-1.225-2.73-2.73-2.73H37.217z"/>
	</g>
	<path fill="#E97728" d="M37.698,21.585H44c0.532-0.004,0.965-0.435,0.965-0.968v-5.506c0-0.531-0.433-0.963-0.965-0.965h-6.302
		c-0.53,0.002-0.963,0.434-0.965,0.965v5.506C36.735,21.15,37.168,21.581,37.698,21.585z M37.506,15.111
		c0-0.052,0.021-0.099,0.06-0.136c0.035-0.036,0.082-0.057,0.135-0.057h6.302c0.053,0,0.1,0.021,0.137,0.057
		c0.037,0.037,0.057,0.084,0.058,0.136v5.506c0,0.054-0.021,0.101-0.058,0.136c-0.037,0.036-0.084,0.057-0.137,0.06H37.7
		c-0.053,0-0.1-0.021-0.135-0.06c-0.037-0.035-0.058-0.082-0.06-0.136V15.111L37.506,15.111z"/>
	<path fill="#E97728" d="M46.457,16.216c-0.225,0.114-0.394,0.295-0.519,0.498c-0.123,0.203-0.207,0.436-0.209,0.688v1.121
		c0.002,0.258,0.09,0.487,0.223,0.688c0.134,0.198,0.312,0.368,0.55,0.471l2.162,1.298c0.108,0.045,0.225,0.069,0.342,0.069
		c0.197,0.002,0.4-0.084,0.535-0.234c0.135-0.152,0.192-0.352,0.192-0.547v-4.825c0-0.187-0.052-0.372-0.177-0.522
		c-0.063-0.074-0.144-0.138-0.233-0.178s-0.187-0.061-0.28-0.061c-0.138,0-0.267,0.037-0.387,0.1L46.457,16.216L46.457,16.216z
		 M46.801,18.97c-0.06-0.023-0.146-0.095-0.205-0.188c-0.063-0.09-0.094-0.199-0.092-0.261v-1.121
		c-0.002-0.064,0.028-0.186,0.094-0.284c0.062-0.103,0.15-0.187,0.211-0.212l2.154-1.411v4.772L46.801,18.97L46.801,18.97z"/>
</g>
<g>
	<path fill="#FFFFFF" d="M7.5,7V4.927C7.5,2.486,9.486,0.5,11.928,0.5h12.146c2.44,0,4.427,1.986,4.427,4.427v12.146
		c0,2.441-1.986,4.428-4.428,4.428h-2.488v-1h2.488c1.891,0,3.428-1.537,3.428-3.428V4.927c0-1.889-1.537-3.427-3.428-3.427H11.928
		C10.037,1.5,8.5,3.038,8.5,4.927v2.157L7.5,7z"/>
	<g>
		<path fill="#FFFFFF" d="M17.77,27.5H6.23c-2.608,0-4.73-2.122-4.73-4.73V11.23c0-2.608,2.122-4.73,4.73-4.73h11.54
			c2.608,0,4.73,2.122,4.73,4.73V22.77C22.5,25.378,20.378,27.5,17.77,27.5z M6.23,8.5c-1.505,0-2.73,1.225-2.73,2.73V22.77
			c0,1.506,1.225,2.73,2.73,2.73h11.54c1.506,0,2.73-1.225,2.73-2.73V11.23c0-1.506-1.225-2.73-2.73-2.73H6.23z"/>
	</g>
	<path fill="#FFFFFF" d="M6.712,21.512h6.302c0.532-0.004,0.965-0.435,0.965-0.968v-5.506c0-0.531-0.433-0.963-0.965-0.965H6.712
		c-0.53,0.002-0.963,0.434-0.965,0.965v5.506C5.749,21.077,6.182,21.508,6.712,21.512z M6.52,15.038
		c0-0.052,0.021-0.099,0.059-0.136c0.035-0.036,0.082-0.057,0.135-0.057h6.302c0.053,0,0.1,0.021,0.137,0.057
		c0.037,0.037,0.057,0.084,0.058,0.136v5.506c0,0.054-0.021,0.101-0.058,0.136c-0.037,0.036-0.084,0.057-0.137,0.06H6.713
		c-0.053,0-0.1-0.021-0.135-0.06c-0.037-0.035-0.057-0.082-0.059-0.136L6.52,15.038L6.52,15.038z"/>
	<path fill="#FFFFFF" d="M15.471,16.143c-0.225,0.114-0.394,0.295-0.519,0.498c-0.123,0.203-0.207,0.436-0.209,0.688v1.121
		c0.002,0.258,0.09,0.487,0.223,0.688c0.134,0.198,0.312,0.368,0.55,0.471l2.162,1.298c0.108,0.045,0.225,0.069,0.342,0.069
		c0.197,0.002,0.4-0.084,0.535-0.234c0.135-0.152,0.192-0.352,0.192-0.547V15.37c0-0.187-0.052-0.372-0.177-0.522
		c-0.063-0.074-0.144-0.138-0.233-0.178s-0.187-0.061-0.28-0.061c-0.138,0-0.267,0.037-0.387,0.1L15.471,16.143L15.471,16.143z
		 M15.814,18.896c-0.06-0.023-0.146-0.095-0.205-0.188c-0.063-0.09-0.094-0.199-0.092-0.261v-1.121
		c-0.002-0.064,0.028-0.186,0.094-0.284c0.062-0.103,0.149-0.187,0.211-0.212l2.154-1.411v4.772L15.814,18.896L15.814,18.896z"/>
</g>
</svg>
