<?xml version="1.0" encoding="utf-8"?>
<!-- Generator: Adobe Illustrator 16.0.0, SVG Export Plug-In . SVG Version: 6.00 Build 0)  -->
<!DOCTYPE svg PUBLIC "-//W3C//DTD SVG 1.1//EN" "http://www.w3.org/Graphics/SVG/1.1/DTD/svg11.dtd">
<svg version="1.1" id="Layer_1" xmlns="http://www.w3.org/2000/svg" xmlns:xlink="http://www.w3.org/1999/xlink" x="0px" y="0px"
	 width="31px" height="15px" viewBox="-8.167 -0.167 31 15" enable-background="new -8.167 -0.167 31 15" xml:space="preserve">
<g>
	<path fill="#FFFFFF" stroke="#000000" stroke-width="2" stroke-miterlimit="10" d="M0.75,12.99c-0.779,0.777-2.051,0.777-2.829,0
		l-4.244-4.242c-0.778-0.777-0.778-2.05,0-2.828l4.243-4.243c0.778-0.778,2.05-0.778,2.828,0L4.991,5.92
		c0.777,0.778,0.777,2.05,0,2.828L0.75,12.99z"/>
</g>
<g>
	<path fill="#2BBCA0" stroke="#2BBCA0" stroke-width="2" stroke-miterlimit="10" d="M16.75,12.99c-0.779,0.777-2.051,0.777-2.829,0
		L9.677,8.748c-0.778-0.777-0.778-2.049,0-2.827l4.243-4.243c0.777-0.778,2.051-0.778,2.828,0l4.242,4.243
		c0.777,0.778,0.777,2.05,0,2.827L16.75,12.99z"/>
</g>
</svg>
