<?xml version="1.0" encoding="utf-8"?>
<!-- Generator: Adobe Illustrator 16.0.0, SVG Export Plug-In . SVG Version: 6.00 Build 0)  -->
<!DOCTYPE svg PUBLIC "-//W3C//DTD SVG 1.1//EN" "http://www.w3.org/Graphics/SVG/1.1/DTD/svg11.dtd">
<svg version="1.1" id="Layer_1" xmlns="http://www.w3.org/2000/svg" xmlns:xlink="http://www.w3.org/1999/xlink" x="0px" y="0px"
	 width="50px" height="42px" viewBox="0 0 50 42" enable-background="new 0 0 50 42" xml:space="preserve">
<path fill="#2BBCA0" d="M13.586,6.512c0,0.653-0.534,1.188-1.186,1.188H4.094l2.374,2.374c0.474,0.474,0.474,1.186,0,1.661
	c-0.238,0.237-0.534,0.356-0.831,0.356c-0.297,0-0.593-0.119-0.831-0.356l-4.39-4.391C0.356,7.285,0.296,7.226,0.237,7.166
	c0,0-0.059-0.06-0.059-0.118c0-0.06-0.06-0.06-0.06-0.12c0-0.059,0-0.059-0.059-0.118c0-0.06,0-0.06-0.059-0.119
	c0.059-0.118,0.059-0.296,0.059-0.415c0-0.059,0-0.059,0.059-0.118c0-0.06,0-0.06,0.06-0.12c0-0.058,0.059-0.058,0.059-0.118
	c0-0.059,0.059-0.059,0.059-0.118c0.06-0.06,0.119-0.119,0.178-0.178l4.391-4.392c0.474-0.474,1.186-0.474,1.661,0
	C7,1.705,7,2.418,6.526,2.893L4.153,5.267h8.307C13.052,5.326,13.586,5.86,13.586,6.512z M49.719,7.166c0,0,0.059-0.06,0.059-0.118
	c0-0.06,0.061-0.06,0.061-0.12c0-0.059,0-0.059,0.059-0.118c0-0.06,0-0.06,0.06-0.119c0.059-0.178,0.059-0.296,0-0.474
	c0-0.059,0-0.059-0.06-0.119c0-0.06,0-0.06-0.059-0.118c0-0.06-0.061-0.06-0.061-0.119s-0.059-0.059-0.059-0.119
	C49.66,5.682,49.6,5.623,49.541,5.563l-4.392-4.332c-0.474-0.474-1.186-0.474-1.661,0c-0.474,0.474-0.474,1.187,0,1.662l2.374,2.374
	h-8.306c-0.653,0-1.187,0.534-1.187,1.187s0.533,1.187,1.187,1.187h8.306l-2.374,2.374c-0.474,0.475-0.474,1.187,0,1.662
	c0.238,0.237,0.534,0.356,0.831,0.356s0.594-0.119,0.83-0.356l4.392-4.391C49.6,7.285,49.66,7.226,49.719,7.166z M45.032,29.598
	C44.142,35.591,41.412,42,36.547,42H24.682c-2.967,0-5.934-2.375-8.188-6.528c-2.729-5.104-3.975-12.403-1.186-16.615
	c1.127-2.018,3.5-2.315,5.814-2.137V3.368c0-1.188,0.593-2.196,1.602-2.789c1.305-0.771,3.085-0.771,4.391,0
	c1.008,0.593,1.601,1.602,1.601,2.789v10.385c2.789,0.534,10.503,2.137,13.47,3.027C45.743,17.846,45.625,25.384,45.032,29.598z
	 M42.777,22.061c-0.356-2.196-1.009-2.967-1.306-3.026c-3.383-1.009-14.002-3.145-14.121-3.145
	c-0.533-0.119-0.949-0.594-0.949-1.188V3.368c0-0.238-0.059-0.475-0.415-0.712c-0.534-0.297-1.483-0.297-2.018,0
	c-0.415,0.237-0.415,0.475-0.415,0.712v14.717c0,0,0,0,0,0.06v1.898c0,0.653-0.534,1.187-1.187,1.187
	c-0.652,0-1.187-0.534-1.187-1.187v-0.89c-0.415-0.059-0.771-0.059-1.068-0.059c-1.839,0-2.432,0.534-2.669,0.949l-0.059,0.06
	c-1.958,2.907-1.365,9.198,1.305,14.242c1.78,3.265,4.034,5.28,6.051,5.28h11.807c3.204,0,5.399-5.222,6.171-10.384
	C43.015,26.689,43.073,24.079,42.777,22.061z"/>
</svg>
