<?xml version="1.0" encoding="utf-8"?>
<!-- Generator: Adobe Illustrator 16.0.0, SVG Export Plug-In . SVG Version: 6.00 Build 0)  -->
<!DOCTYPE svg PUBLIC "-//W3C//DTD SVG 1.1//EN" "http://www.w3.org/Graphics/SVG/1.1/DTD/svg11.dtd">
<svg version="1.1" id="Layer_1" xmlns="http://www.w3.org/2000/svg" xmlns:xlink="http://www.w3.org/1999/xlink" x="0px" y="0px"
	 width="61px" height="28px" viewBox="0 0 61 28" enable-background="new 0 0 61 28" xml:space="preserve">
<path d="M21.473,2.708c-0.03-0.188-0.157-0.346-0.331-0.412C20.079,1.896,18.673,1.5,17.166,1.5c-1.185,0-2.437,0.249-3.604,0.946
	l0,0c-0.587,0.35-1.048,0.795-1.401,1.294c-0.528,0.749-0.811,1.612-0.97,2.487c-0.128,0.708-0.176,1.429-0.202,2.129
	c-0.303,0.007-0.648,0.01-0.96,0.01c-0.275,0-0.525-0.003-0.708-0.005C9.228,8.36,9.155,8.359,9.103,8.359
	c-0.051-0.002-0.078-0.002-0.08-0.002C8.886,8.354,8.751,8.411,8.653,8.51C8.555,8.61,8.499,8.749,8.5,8.891l0.02,3.523
	c0.002,0.293,0.233,0.552,0.518,0.552c0,0,0.139,0,0.361,0c0.503,0,1.445-0.023,2.17-0.008c0.107,2.417,0.132,6.045,0.132,8.858
	c0,1.188-0.005,2.221-0.009,2.964c-0.002,0.371-0.004,0.666-0.006,0.874c-0.001,0.203-0.002,0.313-0.002,0.313
	c0,0.14,0.053,0.277,0.15,0.379c0.097,0.098,0.23,0.154,0.368,0.154l4.586-0.022c0.139-0.001,0.268-0.059,0.364-0.16
	c0.097-0.101,0.149-0.236,0.149-0.377c0,0-0.023-2.898-0.052-6.026c-0.023-2.688-0.05-5.541-0.066-6.87
	c0.283-0.006,0.613-0.009,0.934-0.009c0.375,0,0.74,0.003,1.01,0.005c0.135,0.001,0.247,0.003,0.326,0.003
	c0.077,0.001,0.121,0.001,0.121,0.001c0.139,0.003,0.271-0.053,0.37-0.152c0.097-0.099,0.154-0.236,0.154-0.378l0.005-3.263
	c0-0.14-0.053-0.323-0.153-0.422c-0.097-0.1-0.227-0.202-0.366-0.202c0,0-0.062,0-0.172,0c-0.108,0-0.264,0.048-0.453,0.048
	c-0.575,0-1.446,0.021-2.135,0.009c0.014-0.363,0.045-0.669,0.098-0.943c0.048-0.265,0.118-0.481,0.2-0.657
	c0.06-0.134,0.128-0.238,0.2-0.326c0.111-0.131,0.231-0.221,0.385-0.287c0.152-0.065,0.346-0.104,0.594-0.104
	C18.738,6.367,19.34,6.5,20.096,6.8c0.006,0.003,0.012,0.003,0.017,0.005c0.005,0.001,0.012,0.006,0.017,0.008
	c0.012,0.003,0.022,0.003,0.034,0.006c0.016,0.004,0.034,0.007,0.052,0.01c0.015,0.001,0.033,0.002,0.049,0.004
	c0.018,0,0.035,0,0.051,0c0.017-0.003,0.033-0.004,0.049-0.007c0.016-0.003,0.033-0.006,0.047-0.01
	c0.016-0.004,0.031-0.011,0.046-0.016c0.015-0.006,0.031-0.013,0.046-0.021c0.014-0.008,0.029-0.015,0.042-0.024
	c0.015-0.009,0.028-0.019,0.043-0.03c0.013-0.009,0.023-0.019,0.035-0.031c0.015-0.012,0.025-0.023,0.036-0.037
	c0.014-0.011,0.025-0.025,0.034-0.039c0.01-0.015,0.02-0.029,0.029-0.043c0.007-0.015,0.016-0.031,0.023-0.047
	c0.006-0.011,0.012-0.021,0.016-0.032c0.002-0.005,0.003-0.013,0.005-0.019c0.002-0.005,0.005-0.01,0.006-0.016
	c0.105-0.353,0.283-0.945,0.437-1.569c0.076-0.313,0.146-0.634,0.2-0.943C21.465,3.639,21.5,3.342,21.5,3.067
	C21.5,2.944,21.493,2.827,21.473,2.708z M17.147,5.574c-0.255,0.135-0.478,0.326-0.656,0.557c-0.27,0.347-0.44,0.773-0.55,1.255
	c-0.109,0.486-0.154,1.036-0.154,1.655c0,0.064,0.001,0.129,0.001,0.192c0.004,0.285,0.224,0.436,0.5,0.445
	c0.734,0.025,1.936-0.049,2.671-0.049c0.038,0,0.074,0,0.109,0l-0.004,2.272c-0.262-0.002-0.6,0.034-0.948,0.034
	c-0.549,0-1.117,0.024-1.481,0.043c-0.279,0.013-0.495,0.26-0.49,0.546c0.015,0.905,0.045,4.266,0.073,7.392
	c0.015,1.563,0.026,3.074,0.037,4.188c0.005,0.541,0.009,0.99,0.011,1.309l-3.546,0.02c0.005-0.702,0.013-2.037,0.013-3.633
	c0-3.019-0.027-6.973-0.157-9.416c-0.015-0.275-0.229-0.49-0.496-0.501c-0.7-0.025-1.86-0.03-2.529-0.03L9.535,9.42
	c0.146,0.002,0.314,0.003,0.491,0.003c0.505,0,1.083-0.006,1.492-0.03c0.268-0.014,0.478-0.24,0.484-0.514
	c0.03-1.114,0.092-2.247,0.381-3.209c0.144-0.483,0.341-0.923,0.614-1.308c0.274-0.387,0.621-0.721,1.086-1l0,0
	c0.978-0.585,2.036-0.801,3.084-0.802c1.19,0,2.357,0.288,3.298,0.615c-0.008,0.166-0.032,0.371-0.069,0.592
	c-0.07,0.411-0.182,0.877-0.296,1.302c-0.053,0.196-0.105,0.382-0.154,0.554C19.335,5.419,18.794,5.311,18.3,5.31
	C17.879,5.31,17.489,5.391,17.147,5.574z"/>
<path fill="#2BBCA0" d="M52.474,2.708c-0.03-0.188-0.157-0.346-0.331-0.412C51.08,1.896,49.672,1.501,48.164,1.5
	c-1.184,0-2.436,0.249-3.602,0.946l0,0c-0.586,0.351-1.049,0.795-1.4,1.294c-0.531,0.749-0.813,1.611-0.972,2.485
	c-0.129,0.709-0.175,1.43-0.202,2.129c-0.304,0.007-0.648,0.01-0.961,0.01c-0.275,0-0.526-0.001-0.708-0.003
	c-0.092-0.001-0.165-0.002-0.216-0.002c-0.053-0.002-0.078-0.002-0.078-0.002c-0.139-0.003-0.273,0.054-0.371,0.153
	c-0.1,0.1-0.155,0.238-0.154,0.38l0.021,3.523c0,0.293,0.231,0.552,0.518,0.552c0,0,0.137,0,0.359,0c0.504,0,1.446-0.023,2.17-0.008
	c0.106,2.417,0.134,6.045,0.134,8.858c0,1.188-0.005,2.221-0.01,2.964c-0.002,0.371-0.005,0.666-0.006,0.874
	c-0.002,0.201-0.002,0.313-0.002,0.313c-0.002,0.14,0.052,0.276,0.148,0.379c0.098,0.098,0.229,0.154,0.368,0.154l4.588-0.023
	c0.138-0.003,0.268-0.058,0.363-0.16c0.099-0.1,0.149-0.235,0.149-0.376c0,0-0.023-2.898-0.052-6.026
	c-0.022-2.688-0.05-5.541-0.066-6.87c0.283-0.006,0.612-0.009,0.935-0.009c0.374,0,0.738,0.003,1.009,0.005
	c0.135,0.001,0.248,0.003,0.325,0.003c0.077,0.001,0.12,0.001,0.12,0.001c0.14,0.003,0.272-0.053,0.37-0.152
	c0.099-0.099,0.154-0.236,0.154-0.378l0.006-3.263c0-0.14-0.053-0.323-0.152-0.422c-0.096-0.1-0.227-0.202-0.366-0.202
	c0,0-0.062,0-0.171,0s-0.266,0.048-0.453,0.048c-0.575,0-1.446,0.021-2.135,0.009c0.014-0.363,0.045-0.669,0.097-0.943
	c0.048-0.265,0.118-0.481,0.2-0.656c0.061-0.135,0.129-0.239,0.2-0.327c0.11-0.131,0.231-0.221,0.385-0.286
	c0.151-0.066,0.347-0.105,0.594-0.105c0.438,0,1.041,0.133,1.796,0.432c0.008,0.002,0.013,0.002,0.018,0.004
	c0.006,0.003,0.013,0.007,0.017,0.008c0.012,0.003,0.022,0.004,0.033,0.006c0.018,0.006,0.034,0.009,0.053,0.012
	c0.016,0.001,0.032,0.001,0.049,0.003c0.017,0,0.034,0.001,0.051,0c0.016-0.002,0.032-0.004,0.05-0.007
	c0.015-0.001,0.031-0.005,0.047-0.01c0.017-0.003,0.031-0.011,0.047-0.016c0.015-0.006,0.03-0.013,0.046-0.02
	c0.015-0.007,0.028-0.016,0.043-0.025c0.015-0.01,0.028-0.017,0.042-0.03c0.014-0.009,0.023-0.019,0.036-0.031
	c0.015-0.012,0.025-0.023,0.036-0.037c0.014-0.011,0.022-0.025,0.032-0.039c0.011-0.015,0.021-0.029,0.028-0.043
	c0.01-0.015,0.017-0.031,0.024-0.047c0.004-0.011,0.012-0.021,0.014-0.032c0.003-0.005,0.003-0.013,0.006-0.018
	s0.006-0.011,0.007-0.017c0.105-0.353,0.284-0.945,0.437-1.569c0.075-0.313,0.148-0.634,0.201-0.943
	C52.466,3.639,52.5,3.342,52.5,3.067C52.5,2.945,52.493,2.827,52.474,2.708z M48.147,5.574c-0.256,0.135-0.479,0.327-0.656,0.557
	c-0.27,0.347-0.44,0.773-0.549,1.255c-0.109,0.486-0.155,1.036-0.155,1.655c0,0.064,0.001,0.129,0.001,0.192
	c0.004,0.285,0.225,0.436,0.5,0.445c0.733,0.025,1.936-0.049,2.67-0.049c0.039,0,0.074,0,0.11,0l-0.005,2.272
	c-0.264-0.002-0.601,0.034-0.947,0.034c-0.55,0-1.119,0.024-1.481,0.043c-0.279,0.013-0.495,0.26-0.491,0.546
	c0.014,0.905,0.045,4.266,0.073,7.392c0.015,1.563,0.027,3.074,0.037,4.188c0.005,0.541,0.009,0.99,0.011,1.309l-3.547,0.02
	c0.007-0.703,0.014-2.037,0.014-3.633c0-3.019-0.027-6.973-0.156-9.416c-0.015-0.275-0.229-0.49-0.497-0.501
	c-0.699-0.025-1.859-0.03-2.529-0.03L40.533,9.42c0.146,0.002,0.315,0.003,0.492,0.003c0.504,0,1.083-0.006,1.491-0.029
	c0.269-0.015,0.479-0.241,0.485-0.515c0.028-1.114,0.091-2.249,0.379-3.211c0.144-0.482,0.342-0.922,0.614-1.308
	c0.273-0.385,0.621-0.72,1.086-1l0,0c0.979-0.585,2.036-0.801,3.085-0.803c1.189,0,2.355,0.288,3.299,0.615
	c-0.008,0.166-0.032,0.37-0.07,0.592c-0.069,0.41-0.182,0.876-0.296,1.303c-0.053,0.195-0.105,0.382-0.154,0.553
	c-0.609-0.203-1.15-0.311-1.645-0.313C48.879,5.31,48.488,5.391,48.147,5.574z"/>
</svg>
