<?xml version="1.0" encoding="utf-8"?>
<!-- Generator: Adobe Illustrator 16.0.0, SVG Export Plug-In . SVG Version: 6.00 Build 0)  -->
<!DOCTYPE svg PUBLIC "-//W3C//DTD SVG 1.1//EN" "http://www.w3.org/Graphics/SVG/1.1/DTD/svg11.dtd">
<svg version="1.1" id="Layer_1" xmlns="http://www.w3.org/2000/svg" xmlns:xlink="http://www.w3.org/1999/xlink" x="0px" y="0px"
	 width="57px" height="28px" viewBox="0 0 57 28" enable-background="new 0 0 57 28" xml:space="preserve">
<g>
	<path fill="#2BBCA0" d="M46.5,23.12c-0.149,0-0.298-0.067-0.396-0.195c-0.168-0.219-0.127-0.533,0.092-0.701
		c2.154-1.657,3.493-4.791,3.493-8.18c0-3.46-1.38-6.626-3.601-8.26c-0.223-0.164-0.271-0.477-0.106-0.699
		c0.164-0.223,0.479-0.269,0.698-0.106c2.473,1.819,4.009,5.293,4.009,9.066c0,3.692-1.488,7.131-3.884,8.973
		C46.714,23.086,46.606,23.12,46.5,23.12z"/>
	<path fill="#2BBCA0" d="M39.502,23.242c-0.102,0-0.204-0.031-0.293-0.095c-2.504-1.811-4.061-5.299-4.061-9.104
		c0-3.803,1.555-7.291,4.059-9.103c0.223-0.162,0.535-0.112,0.698,0.112c0.161,0.224,0.111,0.536-0.112,0.698
		c-2.248,1.626-3.645,4.804-3.645,8.292c0,3.489,1.397,6.667,3.646,8.293c0.224,0.162,0.273,0.475,0.112,0.698
		C39.81,23.17,39.656,23.242,39.502,23.242z"/>
	<path fill="#2BBCA0" d="M43,23.802c-0.276,0-0.5-0.224-0.5-0.5v-19c0-0.276,0.224-0.5,0.5-0.5s0.5,0.224,0.5,0.5v19
		C43.5,23.578,43.276,23.802,43,23.802z"/>
	<path fill="#2BBCA0" d="M51.5,10.302h-17c-0.276,0-0.5-0.224-0.5-0.5s0.224-0.5,0.5-0.5h17c0.276,0,0.5,0.224,0.5,0.5
		S51.776,10.302,51.5,10.302z"/>
	<path fill="#2BBCA0" d="M51.5,18.302h-17c-0.276,0-0.5-0.224-0.5-0.5s0.224-0.5,0.5-0.5h17c0.276,0,0.5,0.224,0.5,0.5
		S51.776,18.302,51.5,18.302z"/>
	<path fill="#2BBCA0" d="M43,2.022c6.617,0,11.981,5.363,11.981,11.979c0,6.614-5.364,11.977-11.981,11.977
		s-11.981-5.363-11.981-11.977C31.019,7.385,36.383,2.022,43,2.022 M43,0c-7.72,0-14,6.281-14,14.001C29,21.72,35.28,28,43,28
		c7.721,0,14-6.28,14-13.999C57,6.281,50.721,0,43,0L43,0z"/>
</g>
<g>
	<path d="M17.5,23.12c-0.149,0-0.298-0.067-0.396-0.195c-0.168-0.219-0.127-0.533,0.092-0.701c2.154-1.657,3.493-4.791,3.493-8.18
		c0-3.46-1.38-6.626-3.601-8.26c-0.223-0.164-0.271-0.477-0.106-0.699c0.164-0.223,0.479-0.269,0.698-0.106
		c2.473,1.819,4.009,5.293,4.009,9.066c0,3.692-1.488,7.131-3.884,8.973C17.714,23.086,17.606,23.12,17.5,23.12z"/>
	<path d="M10.502,23.242c-0.102,0-0.204-0.031-0.293-0.095c-2.504-1.811-4.061-5.299-4.061-9.104c0-3.803,1.555-7.291,4.059-9.103
		c0.223-0.162,0.535-0.112,0.698,0.112c0.161,0.224,0.111,0.536-0.112,0.698c-2.248,1.626-3.645,4.804-3.645,8.292
		c0,3.489,1.397,6.667,3.646,8.293c0.224,0.162,0.273,0.475,0.112,0.698C10.81,23.17,10.656,23.242,10.502,23.242z"/>
	<path d="M14,23.802c-0.276,0-0.5-0.224-0.5-0.5v-19c0-0.276,0.224-0.5,0.5-0.5s0.5,0.224,0.5,0.5v19
		C14.5,23.578,14.276,23.802,14,23.802z"/>
	<path d="M22.5,10.302h-17c-0.276,0-0.5-0.224-0.5-0.5s0.224-0.5,0.5-0.5h17c0.276,0,0.5,0.224,0.5,0.5S22.776,10.302,22.5,10.302z"
		/>
	<path d="M22.5,18.302h-17c-0.276,0-0.5-0.224-0.5-0.5s0.224-0.5,0.5-0.5h17c0.276,0,0.5,0.224,0.5,0.5S22.776,18.302,22.5,18.302z"
		/>
	<path d="M14,2.022c6.617,0,11.981,5.363,11.981,11.979c0,6.614-5.364,11.977-11.981,11.977S2.019,20.615,2.019,14.001
		C2.019,7.385,7.383,2.022,14,2.022 M14,0C6.28,0,0,6.281,0,14.001C0,21.72,6.28,28,14,28c7.721,0,14-6.28,14-13.999
		C28,6.281,21.721,0,14,0L14,0z"/>
</g>
</svg>
