<?xml version="1.0" encoding="utf-8"?>
<!-- Generator: Adobe Illustrator 16.0.0, SVG Export Plug-In . SVG Version: 6.00 Build 0)  -->
<!DOCTYPE svg PUBLIC "-//W3C//DTD SVG 1.1//EN" "http://www.w3.org/Graphics/SVG/1.1/DTD/svg11.dtd">
<svg version="1.1" id="Layer_1" xmlns="http://www.w3.org/2000/svg" xmlns:xlink="http://www.w3.org/1999/xlink" x="0px" y="0px"
	 width="61px" height="28px" viewBox="0 0 61 28" enable-background="new 0 0 61 28" xml:space="preserve">
<g>
	<path fill="#2BBCA0" d="M49.5,23.12c-0.148,0-0.298-0.067-0.396-0.195c-0.168-0.219-0.127-0.532,0.092-0.7
		c2.154-1.658,3.494-4.791,3.494-8.181c0-3.46-1.381-6.626-3.602-8.26c-0.223-0.164-0.271-0.478-0.105-0.699
		c0.164-0.224,0.479-0.269,0.697-0.106c2.473,1.819,4.01,5.293,4.01,9.066c0,3.691-1.488,7.131-3.885,8.973
		C49.714,23.086,49.605,23.12,49.5,23.12z"/>
	<path fill="#2BBCA0" d="M42.502,23.242c-0.102,0-0.204-0.031-0.293-0.096c-2.504-1.811-4.061-5.299-4.061-9.104
		c0-3.803,1.555-7.291,4.059-9.104c0.223-0.162,0.535-0.111,0.697,0.112s0.111,0.536-0.111,0.698
		c-2.248,1.626-3.645,4.805-3.645,8.292c0,3.489,1.396,6.667,3.646,8.293c0.224,0.162,0.272,0.476,0.112,0.698
		C42.811,23.17,42.656,23.242,42.502,23.242z"/>
	<path fill="#2BBCA0" d="M46,23.802c-0.275,0-0.5-0.224-0.5-0.5v-19c0-0.276,0.225-0.5,0.5-0.5s0.5,0.224,0.5,0.5v19
		C46.5,23.578,46.275,23.802,46,23.802z"/>
	<path fill="#2BBCA0" d="M54.5,10.302h-17c-0.275,0-0.5-0.224-0.5-0.5s0.225-0.5,0.5-0.5h17c0.275,0,0.5,0.224,0.5,0.5
		S54.775,10.302,54.5,10.302z"/>
	<path fill="#2BBCA0" d="M54.5,18.302h-17c-0.275,0-0.5-0.224-0.5-0.5s0.225-0.5,0.5-0.5h17c0.275,0,0.5,0.224,0.5,0.5
		S54.775,18.302,54.5,18.302z"/>
	<path fill="#2BBCA0" d="M46,2.021c6.617,0,11.98,5.363,11.98,11.979c0,6.614-5.363,11.978-11.98,11.978s-11.98-5.363-11.98-11.978
		C34.02,7.385,39.383,2.021,46,2.021 M46,0c-7.721,0-14,6.281-14,14.001S38.279,28,46,28s14-6.279,14-13.999S53.721,0,46,0L46,0z"/>
</g>
<g>
	<path d="M18.5,23.12c-0.149,0-0.298-0.067-0.396-0.195c-0.168-0.219-0.127-0.532,0.092-0.7c2.154-1.658,3.493-4.791,3.493-8.181
		c0-3.46-1.38-6.626-3.601-8.26c-0.223-0.164-0.271-0.478-0.106-0.699c0.164-0.224,0.479-0.269,0.698-0.106
		c2.473,1.819,4.009,5.293,4.009,9.066c0,3.691-1.488,7.131-3.884,8.973C18.714,23.086,18.606,23.12,18.5,23.12z"/>
	<path d="M11.502,23.242c-0.102,0-0.204-0.031-0.293-0.096c-2.504-1.811-4.061-5.299-4.061-9.104c0-3.803,1.555-7.291,4.059-9.104
		c0.223-0.162,0.535-0.111,0.698,0.112c0.161,0.224,0.111,0.536-0.112,0.698c-2.248,1.626-3.645,4.805-3.645,8.292
		c0,3.489,1.397,6.667,3.646,8.293c0.224,0.162,0.273,0.476,0.112,0.698C11.81,23.17,11.656,23.242,11.502,23.242z"/>
	<path d="M15,23.802c-0.276,0-0.5-0.224-0.5-0.5v-19c0-0.276,0.224-0.5,0.5-0.5s0.5,0.224,0.5,0.5v19
		C15.5,23.578,15.276,23.802,15,23.802z"/>
	<path d="M23.5,10.302h-17c-0.276,0-0.5-0.224-0.5-0.5s0.224-0.5,0.5-0.5h17c0.275,0,0.5,0.224,0.5,0.5S23.775,10.302,23.5,10.302z"
		/>
	<path d="M23.5,18.302h-17c-0.276,0-0.5-0.224-0.5-0.5s0.224-0.5,0.5-0.5h17c0.275,0,0.5,0.224,0.5,0.5S23.775,18.302,23.5,18.302z"
		/>
	<path d="M15,2.021c6.617,0,11.98,5.363,11.98,11.979c0,6.614-5.363,11.978-11.98,11.978S3.019,20.615,3.019,14.001
		C3.019,7.385,8.383,2.021,15,2.021 M15,0C7.28,0,1,6.281,1,14.001S7.28,28,15,28c7.721,0,14-6.279,14-13.999S22.721,0,15,0L15,0z"
		/>
</g>
</svg>
