<?xml version="1.0" encoding="utf-8"?>
<!-- Generator: Adobe Illustrator 16.0.0, SVG Export Plug-In . SVG Version: 6.00 Build 0)  -->
<!DOCTYPE svg PUBLIC "-//W3C//DTD SVG 1.1//EN" "http://www.w3.org/Graphics/SVG/1.1/DTD/svg11.dtd">
<svg version="1.1" id="Layer_1" xmlns="http://www.w3.org/2000/svg" xmlns:xlink="http://www.w3.org/1999/xlink" x="0px" y="0px"
	 width="59px" height="26px" viewBox="0 0 59 26" enable-background="new 0 0 59 26" xml:space="preserve">
<g>
	<path d="M14.424,12.133c2.021,0,3.659,1.625,3.659,3.627c0,2.004-1.638,3.628-3.659,3.628s-3.659-1.624-3.659-3.628
		C10.765,13.758,12.403,12.133,14.424,12.133 M14.424,10.123c-3.136,0-5.687,2.529-5.687,5.638c0,3.108,2.551,5.638,5.687,5.638
		s5.687-2.529,5.687-5.638C20.11,12.652,17.56,10.123,14.424,10.123L14.424,10.123z"/>
	<path d="M14.424,1.005c0.941,0,1.704,0.758,1.704,1.69c0,0.933-0.762,1.69-1.704,1.69s-1.705-0.757-1.705-1.69
		C12.719,1.763,13.482,1.005,14.424,1.005 M14.424,0c-1.499,0-2.718,1.209-2.718,2.695c0,1.486,1.219,2.695,2.718,2.695
		c1.498,0,2.717-1.209,2.717-2.695C17.141,1.209,15.922,0,14.424,0L14.424,0z"/>
	<rect x="13.94" y="5.372" width="1" height="6"/>
	<path d="M26.282,20.321c0.24,0,0.482,0.05,0.714,0.156c0.854,0.392,1.228,1.396,0.833,2.242c-0.288,0.618-0.904,0.981-1.548,0.981
		c-0.239,0-0.482-0.051-0.715-0.157c-0.854-0.391-1.228-1.394-0.832-2.241C25.022,20.686,25.639,20.321,26.282,20.321
		 M26.282,19.316L26.282,19.316c-1.056,0-2.025,0.614-2.468,1.564c-0.305,0.654-0.335,1.387-0.084,2.062
		c0.251,0.676,0.752,1.213,1.412,1.515c0.36,0.165,0.743,0.249,1.139,0.249c1.057,0,2.024-0.614,2.469-1.565
		c0.628-1.348,0.032-2.952-1.328-3.575C27.062,19.399,26.679,19.316,26.282,19.316L26.282,19.316z"/>
	<polygon points="23.646,21.375 18.125,18.846 18.551,17.933 24.072,20.462 	"/>
	<path d="M2.72,21.614c0.577,0,1.14,0.292,1.459,0.818c0.486,0.8,0.227,1.838-0.58,2.319c-0.275,0.164-0.579,0.243-0.879,0.243
		c-0.578,0-1.141-0.292-1.46-0.818c-0.486-0.8-0.225-1.838,0.581-2.318C2.116,21.693,2.42,21.614,2.72,21.614 M2.72,20.609
		L2.72,20.609c-0.493,0-0.979,0.135-1.402,0.388c-0.622,0.371-1.061,0.96-1.236,1.658c-0.176,0.699-0.065,1.424,0.31,2.04
		C0.878,25.499,1.771,26,2.72,26c0.494,0,0.979-0.135,1.402-0.388c0.622-0.371,1.061-0.96,1.235-1.659
		c0.174-0.698,0.064-1.423-0.311-2.039C4.559,21.11,3.668,20.609,2.72,20.609L2.72,20.609z"/>
	<polygon points="5.253,22.36 4.73,21.499 9.939,18.388 10.462,19.249 	"/>
</g>
<g>
	<path fill="#2BBCA0" d="M44.424,12.133c2.021,0,3.659,1.625,3.659,3.627c0,2.004-1.639,3.628-3.659,3.628s-3.659-1.624-3.659-3.628
		C40.765,13.758,42.403,12.133,44.424,12.133 M44.424,10.123c-3.136,0-5.687,2.529-5.687,5.638c0,3.108,2.551,5.638,5.687,5.638
		s5.687-2.529,5.687-5.638C50.11,12.652,47.56,10.123,44.424,10.123L44.424,10.123z"/>
	<path fill="#2BBCA0" d="M44.424,1.005c0.941,0,1.704,0.758,1.704,1.69c0,0.933-0.763,1.69-1.704,1.69s-1.704-0.757-1.704-1.69
		C42.72,1.763,43.482,1.005,44.424,1.005 M44.424,0c-1.499,0-2.718,1.209-2.718,2.695c0,1.486,1.219,2.695,2.718,2.695
		c1.498,0,2.718-1.209,2.718-2.695C47.142,1.209,45.922,0,44.424,0L44.424,0z"/>
	<rect x="43.94" y="5.372" fill="#2BBCA0" width="1" height="6"/>
	<path fill="#2BBCA0" d="M56.282,20.321c0.24,0,0.482,0.05,0.714,0.156c0.854,0.392,1.228,1.396,0.833,2.242
		c-0.288,0.618-0.904,0.981-1.548,0.981c-0.239,0-0.482-0.051-0.715-0.157c-0.854-0.391-1.228-1.394-0.832-2.241
		C55.022,20.686,55.639,20.321,56.282,20.321 M56.282,19.316L56.282,19.316c-1.056,0-2.025,0.614-2.468,1.564
		c-0.305,0.654-0.335,1.387-0.084,2.062c0.251,0.676,0.752,1.213,1.412,1.515c0.36,0.165,0.743,0.249,1.139,0.249
		c1.057,0,2.024-0.614,2.469-1.565c0.628-1.348,0.032-2.952-1.328-3.575C57.062,19.399,56.679,19.316,56.282,19.316L56.282,19.316z"
		/>
	<polygon fill="#2BBCA0" points="53.646,21.375 48.126,18.846 48.551,17.933 54.072,20.462 	"/>
	<path fill="#2BBCA0" d="M32.72,21.614c0.577,0,1.14,0.292,1.459,0.818c0.486,0.8,0.227,1.838-0.58,2.319
		c-0.275,0.164-0.578,0.243-0.879,0.243c-0.578,0-1.141-0.292-1.461-0.818c-0.486-0.8-0.225-1.838,0.582-2.318
		C32.116,21.693,32.42,21.614,32.72,21.614 M32.72,20.609L32.72,20.609c-0.493,0-0.979,0.135-1.402,0.388
		c-0.621,0.371-1.061,0.96-1.236,1.658c-0.176,0.699-0.064,1.424,0.311,2.04C30.878,25.499,31.771,26,32.72,26
		c0.494,0,0.979-0.135,1.402-0.388c0.621-0.371,1.061-0.96,1.235-1.659c0.175-0.698,0.063-1.423-0.311-2.039
		C34.56,21.11,33.668,20.609,32.72,20.609L32.72,20.609z"/>
	<polygon fill="#2BBCA0" points="35.253,22.36 34.729,21.499 39.939,18.388 40.462,19.249 	"/>
</g>
</svg>
