<?xml version="1.0" encoding="utf-8"?>
<!-- Generator: Adobe Illustrator 16.0.0, SVG Export Plug-In . SVG Version: 6.00 Build 0)  -->
<!DOCTYPE svg PUBLIC "-//W3C//DTD SVG 1.1//EN" "http://www.w3.org/Graphics/SVG/1.1/DTD/svg11.dtd">
<svg version="1.1" id="Layer_1" xmlns="http://www.w3.org/2000/svg" xmlns:xlink="http://www.w3.org/1999/xlink" x="0px" y="0px"
	 width="59px" height="26px" viewBox="0 0 59 26" enable-background="new 0 0 59 26" xml:space="preserve">
<g>
	<path fill="#FFFFFF" d="M14.424,12.133c2.021,0,3.659,1.625,3.659,3.627c0,2.004-1.638,3.629-3.659,3.629s-3.659-1.625-3.659-3.629
		C10.765,13.758,12.403,12.133,14.424,12.133 M14.424,10.123c-3.136,0-5.687,2.529-5.687,5.639c0,3.107,2.551,5.637,5.687,5.637
		c3.136,0,5.687-2.528,5.687-5.637C20.11,12.652,17.56,10.123,14.424,10.123L14.424,10.123z"/>
	<path fill="#FFFFFF" d="M14.424,1.005c0.941,0,1.704,0.758,1.704,1.69c0,0.933-0.762,1.69-1.704,1.69
		c-0.942,0-1.705-0.757-1.705-1.69C12.719,1.763,13.482,1.005,14.424,1.005 M14.424,0c-1.499,0-2.718,1.209-2.718,2.695
		c0,1.486,1.219,2.695,2.718,2.695c1.498,0,2.717-1.209,2.717-2.695C17.141,1.209,15.922,0,14.424,0L14.424,0z"/>
	<rect x="13.94" y="5.372" fill="#FFFFFF" width="1" height="6"/>
	<path fill="#FFFFFF" d="M26.282,20.32c0.24,0,0.482,0.051,0.714,0.156c0.854,0.393,1.228,1.396,0.833,2.242
		c-0.288,0.618-0.904,0.981-1.548,0.981c-0.239,0-0.482-0.052-0.715-0.157c-0.854-0.391-1.228-1.395-0.832-2.24
		C25.022,20.686,25.639,20.32,26.282,20.32 M26.282,19.316L26.282,19.316c-1.056,0-2.025,0.613-2.468,1.563
		c-0.305,0.654-0.335,1.388-0.084,2.062c0.251,0.677,0.752,1.213,1.412,1.516c0.36,0.165,0.743,0.249,1.139,0.249
		c1.057,0,2.024-0.614,2.469-1.565c0.628-1.348,0.032-2.951-1.328-3.574C27.062,19.398,26.679,19.316,26.282,19.316L26.282,19.316z"
		/>
	<polygon fill="#FFFFFF" points="23.646,21.375 18.125,18.846 18.551,17.934 24.072,20.462 	"/>
	<path fill="#FFFFFF" d="M2.72,21.613c0.577,0,1.14,0.293,1.459,0.818c0.486,0.801,0.227,1.838-0.58,2.319
		c-0.275,0.164-0.579,0.243-0.879,0.243c-0.578,0-1.141-0.292-1.46-0.818c-0.486-0.8-0.225-1.838,0.581-2.318
		C2.116,21.693,2.42,21.613,2.72,21.613 M2.72,20.609L2.72,20.609c-0.493,0-0.979,0.135-1.402,0.388
		c-0.622,0.371-1.061,0.96-1.236,1.657c-0.176,0.699-0.065,1.425,0.31,2.041C0.878,25.499,1.771,26,2.72,26
		c0.494,0,0.979-0.135,1.402-0.389c0.622-0.37,1.061-0.959,1.235-1.658c0.174-0.698,0.064-1.424-0.311-2.039
		C4.559,21.109,3.668,20.609,2.72,20.609L2.72,20.609z"/>
	<polygon fill="#FFFFFF" points="5.253,22.359 4.73,21.499 9.939,18.389 10.462,19.249 	"/>
</g>
<g>
	<path fill="#E97728" d="M44.424,12.133c2.021,0,3.659,1.625,3.659,3.627c0,2.004-1.64,3.629-3.659,3.629s-3.658-1.625-3.658-3.629
		C40.766,13.758,42.402,12.133,44.424,12.133 M44.424,10.123c-3.136,0-5.688,2.529-5.688,5.639c0,3.107,2.552,5.637,5.688,5.637
		c3.137,0,5.688-2.528,5.688-5.637C50.109,12.652,47.561,10.123,44.424,10.123L44.424,10.123z"/>
	<path fill="#E97728" d="M44.424,1.005c0.941,0,1.704,0.758,1.704,1.69c0,0.933-0.763,1.69-1.704,1.69s-1.703-0.757-1.703-1.69
		C42.721,1.763,43.482,1.005,44.424,1.005 M44.424,0c-1.499,0-2.718,1.209-2.718,2.695c0,1.486,1.219,2.695,2.718,2.695
		c1.498,0,2.719-1.209,2.719-2.695C47.143,1.209,45.922,0,44.424,0L44.424,0z"/>
	<rect x="43.939" y="5.372" fill="#E97728" width="1" height="6"/>
	<path fill="#E97728" d="M56.282,20.32c0.239,0,0.481,0.051,0.714,0.156c0.854,0.393,1.229,1.396,0.833,2.242
		c-0.288,0.618-0.904,0.981-1.548,0.981c-0.239,0-0.482-0.052-0.715-0.157c-0.854-0.391-1.229-1.395-0.832-2.24
		C55.021,20.686,55.639,20.32,56.282,20.32 M56.282,19.316L56.282,19.316c-1.056,0-2.025,0.613-2.468,1.563
		c-0.306,0.654-0.336,1.388-0.084,2.062c0.25,0.677,0.752,1.213,1.412,1.516c0.359,0.165,0.742,0.249,1.139,0.249
		c1.057,0,2.023-0.614,2.469-1.565c0.628-1.348,0.032-2.951-1.328-3.574C57.062,19.398,56.68,19.316,56.282,19.316L56.282,19.316z"
		/>
	<polygon fill="#E97728" points="53.646,21.375 48.126,18.846 48.551,17.934 54.072,20.462 	"/>
	<path fill="#E97728" d="M32.721,21.613c0.576,0,1.139,0.293,1.459,0.818c0.485,0.801,0.227,1.838-0.58,2.319
		c-0.275,0.164-0.578,0.243-0.879,0.243c-0.578,0-1.142-0.292-1.462-0.818c-0.485-0.8-0.225-1.838,0.582-2.318
		C32.116,21.693,32.42,21.613,32.721,21.613 M32.721,20.609L32.721,20.609c-0.494,0-0.979,0.135-1.402,0.388
		c-0.621,0.371-1.062,0.96-1.236,1.657c-0.176,0.699-0.064,1.425,0.311,2.041C30.878,25.499,31.771,26,32.721,26
		c0.493,0,0.979-0.135,1.401-0.389c0.621-0.37,1.062-0.959,1.235-1.658c0.175-0.698,0.062-1.424-0.312-2.039
		C34.561,21.109,33.668,20.609,32.721,20.609L32.721,20.609z"/>
	<polygon fill="#E97728" points="35.253,22.359 34.729,21.499 39.939,18.389 40.462,19.249 	"/>
</g>
</svg>
