<?xml version="1.0" encoding="utf-8"?>
<!-- Generator: Adobe Illustrator 16.0.0, SVG Export Plug-In . SVG Version: 6.00 Build 0)  -->
<!DOCTYPE svg PUBLIC "-//W3C//DTD SVG 1.1//EN" "http://www.w3.org/Graphics/SVG/1.1/DTD/svg11.dtd">
<svg version="1.1" id="Layer_1" xmlns="http://www.w3.org/2000/svg" xmlns:xlink="http://www.w3.org/1999/xlink" x="0px" y="0px"
	 width="61px" height="28px" viewBox="0 0 61 28" enable-background="new 0 0 61 28" xml:space="preserve">
<g>
	<path d="M14.927,13.133c1.952,0,3.533,1.625,3.533,3.627c0,2.004-1.582,3.629-3.533,3.629c-1.951,0-3.532-1.625-3.532-3.629
		C11.395,14.758,12.976,13.133,14.927,13.133 M14.927,11.123c-3.027,0-5.491,2.529-5.491,5.638s2.463,5.638,5.491,5.638
		c3.028,0,5.491-2.527,5.491-5.638C20.417,13.652,17.955,11.123,14.927,11.123L14.927,11.123z"/>
	<path d="M14.927,2.005c0.909,0,1.646,0.759,1.646,1.69c0,0.933-0.735,1.689-1.646,1.689c-0.909,0-1.646-0.757-1.646-1.689
		C13.281,2.764,14.018,2.005,14.927,2.005 M14.927,1c-1.447,0-2.624,1.209-2.624,2.695s1.177,2.695,2.624,2.695
		c1.447,0,2.624-1.209,2.624-2.695S16.374,1,14.927,1L14.927,1z"/>
	<rect x="14.46" y="6.372" width="0.965" height="6"/>
	<path d="M26.376,21.32c0.23,0,0.465,0.051,0.689,0.156c0.824,0.393,1.186,1.396,0.804,2.241c-0.278,0.618-0.873,0.981-1.495,0.981
		c-0.23,0-0.466-0.053-0.689-0.157c-0.826-0.392-1.187-1.396-0.804-2.241C25.16,21.686,25.756,21.32,26.376,21.32 M26.376,20.316
		L26.376,20.316c-1.02,0-1.956,0.613-2.383,1.563c-0.295,0.654-0.324,1.389-0.081,2.063c0.241,0.677,0.726,1.213,1.362,1.516
		c0.348,0.165,0.718,0.249,1.101,0.249c1.021,0,1.955-0.614,2.384-1.565c0.605-1.348,0.031-2.951-1.281-3.574
		C27.129,20.398,26.76,20.316,26.376,20.316L26.376,20.316z"/>
	<polygon points="23.831,22.375 18.501,19.846 18.912,18.934 24.242,21.462 	"/>
	<path d="M3.626,22.614c0.557,0,1.101,0.292,1.409,0.817c0.469,0.801,0.219,1.838-0.561,2.318c-0.265,0.164-0.559,0.243-0.849,0.243
		c-0.558,0-1.102-0.292-1.41-0.818c-0.469-0.8-0.217-1.838,0.561-2.317C3.043,22.693,3.337,22.614,3.626,22.614 M3.626,21.609
		L3.626,21.609c-0.476,0-0.945,0.135-1.354,0.388c-0.601,0.371-1.024,0.96-1.193,1.657c-0.17,0.699-0.063,1.425,0.299,2.041
		C1.848,26.499,2.71,27,3.626,27c0.477,0,0.945-0.135,1.354-0.389c0.601-0.37,1.024-0.959,1.192-1.658
		c0.168-0.698,0.062-1.424-0.3-2.039C5.402,22.109,4.542,21.609,3.626,21.609L3.626,21.609z"/>
	<polygon points="6.072,23.359 5.567,22.499 10.597,19.389 11.102,20.249 	"/>
</g>
<g>
	<path fill="#2BBCA0" d="M45.926,13.133c1.951,0,3.533,1.625,3.533,3.627c0,2.004-1.584,3.629-3.533,3.629
		c-1.95,0-3.532-1.625-3.532-3.629C42.394,14.758,43.974,13.133,45.926,13.133 M45.926,11.123c-3.028,0-5.491,2.529-5.491,5.638
		s2.463,5.638,5.491,5.638s5.491-2.527,5.491-5.638C51.415,13.652,48.954,11.123,45.926,11.123L45.926,11.123z"/>
	<path fill="#2BBCA0" d="M45.926,2.005c0.908,0,1.646,0.759,1.646,1.69c0,0.933-0.737,1.689-1.646,1.689s-1.645-0.757-1.645-1.689
		C44.281,2.764,45.017,2.005,45.926,2.005 M45.926,1c-1.446,0-2.624,1.209-2.624,2.695s1.178,2.695,2.624,2.695
		s2.625-1.209,2.625-2.695S47.372,1,45.926,1L45.926,1z"/>
	<rect x="45.458" y="6.372" fill="#2BBCA0" width="0.966" height="6"/>
	<path fill="#2BBCA0" d="M57.375,21.32c0.231,0,0.465,0.051,0.688,0.156c0.824,0.393,1.188,1.396,0.806,2.241
		c-0.278,0.618-0.873,0.981-1.495,0.981c-0.23,0-0.466-0.053-0.689-0.157c-0.824-0.392-1.187-1.396-0.804-2.241
		C56.158,21.686,56.754,21.32,57.375,21.32 M57.375,20.316L57.375,20.316c-1.021,0-1.955,0.613-2.383,1.563
		c-0.295,0.654-0.324,1.389-0.081,2.063c0.24,0.677,0.727,1.213,1.363,1.516c0.348,0.165,0.717,0.249,1.1,0.249
		c1.021,0,1.954-0.614,2.384-1.565c0.606-1.348,0.031-2.951-1.282-3.574C58.129,20.398,57.759,20.316,57.375,20.316L57.375,20.316z"
		/>
	<polygon fill="#2BBCA0" points="54.83,22.375 49.5,19.846 49.91,18.934 55.241,21.462 	"/>
	<path fill="#2BBCA0" d="M34.626,22.614c0.557,0,1.1,0.292,1.408,0.817c0.469,0.801,0.219,1.838-0.561,2.318
		c-0.267,0.164-0.559,0.243-0.849,0.243c-0.56,0-1.103-0.292-1.412-0.818c-0.469-0.8-0.217-1.838,0.563-2.317
		C34.042,22.693,34.335,22.614,34.626,22.614 M34.626,21.609L34.626,21.609c-0.479,0-0.945,0.135-1.354,0.388
		c-0.601,0.371-1.024,0.96-1.193,1.657c-0.17,0.699-0.063,1.425,0.3,2.041C32.847,26.499,33.709,27,34.626,27
		c0.477,0,0.943-0.135,1.354-0.389c0.6-0.37,1.024-0.959,1.192-1.658c0.168-0.698,0.06-1.424-0.301-2.039
		C36.401,22.109,35.54,21.609,34.626,21.609L34.626,21.609z"/>
	<polygon fill="#2BBCA0" points="37.069,23.359 36.563,22.499 41.597,19.389 42.101,20.249 	"/>
</g>
</svg>
