<?xml version="1.0" encoding="utf-8"?>
<!-- Generator: Adobe Illustrator 16.0.0, SVG Export Plug-In . SVG Version: 6.00 Build 0)  -->
<!DOCTYPE svg PUBLIC "-//W3C//DTD SVG 1.1//EN" "http://www.w3.org/Graphics/SVG/1.1/DTD/svg11.dtd">
<svg version="1.1" id="Layer_1" xmlns="http://www.w3.org/2000/svg" xmlns:xlink="http://www.w3.org/1999/xlink" x="0px" y="0px"
	 width="28px" height="28px" viewBox="0 0 28 28" enable-background="new 0 0 28 28" xml:space="preserve">
<g>
	<g>
		<path fill="#FFFFFF" d="M13.492,12.833c1.797,0,3.255,1.489,3.255,3.327c0,1.837-1.458,3.326-3.255,3.326
			c-1.798,0-3.256-1.489-3.256-3.326C10.236,14.322,11.694,12.833,13.492,12.833 M13.492,10.833c-2.898,0-5.256,2.39-5.256,5.327
			c0,2.937,2.358,5.326,5.256,5.326c2.897,0,5.255-2.39,5.255-5.326C18.747,13.223,16.39,10.833,13.492,10.833L13.492,10.833z"/>
	</g>
	<g>
		<path fill="#FFFFFF" d="M13.492,2.627c0.838,0,1.516,0.695,1.516,1.55c0,0.856-0.678,1.55-1.516,1.55s-1.517-0.694-1.517-1.55
			C11.975,3.323,12.654,2.627,13.492,2.627 M13.492,1.627c-1.388,0-2.517,1.144-2.517,2.55c0,1.406,1.129,2.55,2.517,2.55
			c1.387,0,2.516-1.144,2.516-2.55C16.008,2.771,14.879,1.627,13.492,1.627L13.492,1.627z"/>
	</g>
	<line fill="none" stroke="#FFFFFF" stroke-miterlimit="10" x1="13.5" y1="12" x2="13.5" y2="7"/>
	<g>
		<path fill="#FFFFFF" d="M24.044,20.342c0.213,0,0.43,0.046,0.636,0.144c0.759,0.358,1.092,1.279,0.74,2.057
			c-0.256,0.566-0.805,0.899-1.377,0.899c-0.213,0-0.43-0.046-0.636-0.144c-0.761-0.358-1.093-1.278-0.741-2.056
			C22.922,20.676,23.471,20.342,24.044,20.342 M24.044,19.342L24.044,19.342c-0.981,0-1.88,0.584-2.289,1.488
			c-0.574,1.271-0.024,2.783,1.227,3.372c0.334,0.159,0.692,0.239,1.062,0.239c0.981,0,1.88-0.584,2.288-1.487
			c0.574-1.27,0.025-2.783-1.225-3.373C24.771,19.422,24.413,19.342,24.044,19.342L24.044,19.342z"/>
	</g>
	<line fill="none" stroke="#FFFFFF" stroke-miterlimit="10" x1="16.975" y1="18.57" x2="21.887" y2="20.89"/>
	<g>
		<path fill="#FFFFFF" d="M3.077,21.528c0.514,0,1.014,0.267,1.298,0.75c0.433,0.733,0.202,1.686-0.517,2.127
			c-0.245,0.15-0.515,0.223-0.781,0.223c-0.514,0-1.016-0.267-1.3-0.75c-0.433-0.733-0.2-1.686,0.517-2.127
			C2.54,21.601,2.811,21.528,3.077,21.528 M3.077,20.528L3.077,20.528c-0.46,0-0.912,0.128-1.306,0.371
			c-1.178,0.725-1.561,2.289-0.854,3.486c0.451,0.766,1.279,1.242,2.161,1.242c0.46,0,0.912-0.128,1.306-0.371
			c1.177-0.724,1.561-2.288,0.854-3.486C4.787,21.005,3.959,20.528,3.077,20.528L3.077,20.528z"/>
	</g>
	<line fill="none" stroke="#FFFFFF" stroke-miterlimit="10" x1="9.734" y1="18.964" x2="5.099" y2="21.817"/>
</g>
</svg>
