<?xml version="1.0" encoding="utf-8"?>
<!-- Generator: Adobe Illustrator 16.0.0, SVG Export Plug-In . SVG Version: 6.00 Build 0)  -->
<!DOCTYPE svg PUBLIC "-//W3C//DTD SVG 1.1//EN" "http://www.w3.org/Graphics/SVG/1.1/DTD/svg11.dtd">
<svg version="1.1" id="Layer_1" xmlns="http://www.w3.org/2000/svg" xmlns:xlink="http://www.w3.org/1999/xlink" x="0px" y="0px"
	 width="25px" height="23px" viewBox="0 0 25 23" enable-background="new 0 0 25 23" xml:space="preserve">
<g>
	<path d="M0.785,6.892C0.352,6.892,0,7.248,0,7.687v7.625c0,0.44,0.352,0.796,0.785,0.796s0.785-0.356,0.785-0.796V7.687
		C1.569,7.248,1.218,6.892,0.785,6.892z"/>
	<path d="M16.611,0.118c-0.232-0.145-0.521-0.158-0.764-0.034L3.522,6.348C3.258,6.483,3.089,6.758,3.089,7.06v8.881
		c0,0.301,0.168,0.577,0.433,0.711l12.324,6.264C15.958,22.972,16.078,23,16.198,23c0.144,0,0.287-0.041,0.413-0.119
		c0.231-0.145,0.372-0.402,0.372-0.678V0.796C16.983,0.52,16.842,0.264,16.611,0.118z M15.414,20.915l-1.326-0.675V9.606
		c0-0.293-0.234-0.531-0.523-0.531s-0.522,0.238-0.522,0.531v10.102l-8.384-4.26V7.552l8.384-4.261v3.344
		c0,0.294,0.233,0.531,0.522,0.531s0.523-0.237,0.523-0.531V2.759l1.326-0.673V20.915z"/>
	<path fill="#2BBCA0" d="M19.175,3.331c-0.274-0.092-0.57,0.059-0.661,0.338c-0.09,0.277,0.059,0.579,0.333,0.669
		c3.054,1.02,5.106,3.898,5.106,7.163c0,3.263-2.052,6.141-5.106,7.161c-0.274,0.092-0.423,0.391-0.333,0.671
		c0.072,0.222,0.277,0.365,0.497,0.365c0.055,0,0.11-0.008,0.164-0.028C22.659,18.505,25,15.223,25,11.5
		C25,7.777,22.659,4.494,19.175,3.331z"/>
	<path fill="#2BBCA0" d="M18.767,16.446c-0.255,0.137-0.353,0.458-0.219,0.716c0.094,0.182,0.276,0.284,0.464,0.284
		c0.082,0,0.166-0.019,0.243-0.061c2.16-1.157,3.501-3.414,3.501-5.885c0-2.474-1.341-4.729-3.501-5.886
		C19,5.479,18.683,5.578,18.548,5.837c-0.134,0.258-0.037,0.58,0.219,0.717c1.815,0.973,2.943,2.867,2.943,4.947
		C21.71,13.578,20.582,15.473,18.767,16.446z"/>
</g>
</svg>
