<?xml version="1.0" encoding="utf-8"?>
<!-- Generator: Adobe Illustrator 16.0.0, SVG Export Plug-In . SVG Version: 6.00 Build 0)  -->
<!DOCTYPE svg PUBLIC "-//W3C//DTD SVG 1.1//EN" "http://www.w3.org/Graphics/SVG/1.1/DTD/svg11.dtd">
<svg version="1.1" id="Layer_1" xmlns="http://www.w3.org/2000/svg" xmlns:xlink="http://www.w3.org/1999/xlink" x="0px" y="0px"
	 width="25px" height="23px" viewBox="0 0 25 23" enable-background="new 0 0 25 23" xml:space="preserve">
<g>
	<path fill="#FFFFFF" d="M0.785,6.892C0.352,6.892,0,7.248,0,7.687v7.625c0,0.439,0.352,0.795,0.785,0.795
		c0.433,0,0.785-0.355,0.785-0.795V7.687C1.569,7.248,1.218,6.892,0.785,6.892z"/>
	<path fill="#FFFFFF" d="M16.611,0.118c-0.232-0.145-0.521-0.158-0.764-0.034L3.522,6.348C3.258,6.483,3.089,6.758,3.089,7.06v8.881
		c0,0.301,0.168,0.576,0.433,0.711l12.324,6.264C15.958,22.973,16.078,23,16.197,23c0.145,0,0.287-0.041,0.414-0.119
		c0.23-0.145,0.371-0.402,0.371-0.678V0.796C16.982,0.52,16.842,0.264,16.611,0.118z M15.414,20.915l-1.326-0.675V9.606
		c0-0.293-0.234-0.531-0.523-0.531s-0.521,0.238-0.521,0.531v10.102l-8.384-4.261V7.552l8.384-4.261v3.344
		c0,0.294,0.232,0.531,0.521,0.531s0.523-0.237,0.523-0.531V2.759l1.326-0.673V20.915z"/>
	<path fill="#E97728" d="M19.175,3.331C18.9,3.239,18.605,3.39,18.514,3.669c-0.09,0.277,0.059,0.579,0.334,0.669
		c3.053,1.02,5.105,3.898,5.105,7.163c0,3.263-2.053,6.142-5.105,7.161c-0.275,0.092-0.424,0.391-0.334,0.671
		c0.072,0.222,0.277,0.364,0.498,0.364c0.055,0,0.109-0.008,0.163-0.027C22.659,18.505,25,15.223,25,11.5
		C25,7.777,22.659,4.494,19.175,3.331z"/>
	<path fill="#E97728" d="M18.768,16.445c-0.256,0.138-0.354,0.459-0.22,0.717c0.095,0.182,0.276,0.283,0.464,0.283
		c0.082,0,0.166-0.018,0.243-0.061c2.16-1.156,3.501-3.414,3.501-5.885c0-2.474-1.341-4.729-3.501-5.886
		C19,5.479,18.684,5.578,18.548,5.837c-0.134,0.258-0.036,0.58,0.22,0.717c1.814,0.973,2.942,2.867,2.942,4.947
		C21.71,13.578,20.582,15.473,18.768,16.445z"/>
</g>
</svg>
