<?xml version="1.0" encoding="utf-8"?>
<!-- Generator: Adobe Illustrator 16.0.0, SVG Export Plug-In . SVG Version: 6.00 Build 0)  -->
<!DOCTYPE svg PUBLIC "-//W3C//DTD SVG 1.1//EN" "http://www.w3.org/Graphics/SVG/1.1/DTD/svg11.dtd">
<svg version="1.1" id="Layer_1" xmlns="http://www.w3.org/2000/svg" xmlns:xlink="http://www.w3.org/1999/xlink" x="0px" y="0px"
	 width="25px" height="23px" viewBox="0 0 25 23" enable-background="new 0 0 25 23" xml:space="preserve">
<g>
	<path fill="#666666" d="M0.811,6.892c-0.433,0-0.782,0.356-0.782,0.795v7.626c0,0.439,0.35,0.796,0.782,0.796
		c0.432,0,0.781-0.357,0.781-0.796V7.687C1.592,7.248,1.242,6.892,0.811,6.892z"/>
	<path fill="#666666" d="M16.574,0.118c-0.23-0.144-0.519-0.157-0.761-0.034L3.538,6.348C3.273,6.483,3.105,6.758,3.105,7.06v8.882
		c0,0.301,0.168,0.576,0.433,0.711l12.275,6.264C15.925,22.973,16.045,23,16.163,23c0.143,0,0.286-0.039,0.411-0.119
		c0.23-0.145,0.371-0.4,0.371-0.678V0.796C16.945,0.52,16.805,0.264,16.574,0.118z M15.382,20.914l-1.32-0.674V9.606
		c0-0.292-0.232-0.53-0.521-0.53s-0.521,0.238-0.521,0.53v10.103l-8.352-4.26V7.552l8.352-4.261v3.345
		c0,0.293,0.232,0.531,0.521,0.531s0.521-0.237,0.521-0.531V2.759l1.32-0.673V20.914z"/>
	<path fill="#DD2A2A" d="M24.536,15.198c-0.125,0-0.251-0.049-0.348-0.147l-5.746-5.852c-0.19-0.196-0.19-0.512,0.001-0.708
		c0.191-0.194,0.504-0.195,0.695,0.001l5.745,5.853c0.192,0.195,0.192,0.512,0,0.707C24.788,15.149,24.662,15.198,24.536,15.198z"/>
	<path fill="#DD2A2A" d="M18.791,15.198c-0.127,0-0.251-0.049-0.348-0.146c-0.191-0.195-0.191-0.512-0.001-0.707l5.745-5.853
		c0.192-0.196,0.505-0.195,0.695-0.001c0.193,0.195,0.193,0.512,0.001,0.708l-5.745,5.852
		C19.043,15.149,18.916,15.198,18.791,15.198z"/>
</g>
</svg>
