<?xml version="1.0" encoding="utf-8"?>
<!-- Generator: Adobe Illustrator 16.0.0, SVG Export Plug-In . SVG Version: 6.00 Build 0)  -->
<!DOCTYPE svg PUBLIC "-//W3C//DTD SVG 1.1//EN" "http://www.w3.org/Graphics/SVG/1.1/DTD/svg11.dtd">
<svg version="1.1" id="Layer_1" xmlns="http://www.w3.org/2000/svg" xmlns:xlink="http://www.w3.org/1999/xlink" x="0px" y="0px"
	 width="89px" height="88px" viewBox="0 0 89 88" enable-background="new 0 0 89 88" xml:space="preserve">
<g>
	<path fill="#E97728" d="M44,0C20,0,0,19.699,0,44c0,24.3,20,44,44,44V0z"/>
	<path fill="#FFFFFF" d="M30.928,30.405c0.535,0,1.037,0.208,1.414,0.584l1.415,1.414c0.78,0.78,0.78,2.049,0,2.829l-9.743,9.743
		l9.743,9.743c0.78,0.779,0.78,2.048,0,2.828l-1.414,1.414c-0.754,0.754-2.074,0.754-2.828,0L16.944,46.389
		c-0.78-0.78-0.78-2.048,0-2.828l12.57-12.571C29.891,30.613,30.393,30.405,30.928,30.405z M30.929,57.546l1.414-1.414L22.6,46.389
		c-0.78-0.78-0.78-2.048,0-2.828l9.915-9.743l-1.243-1.379v0.036h-0.347L18.358,45.01L30.929,57.546z"/>
</g>
<g>
	<path fill="#E97728" d="M45,87.998c24,0,44-19.699,44-44c0-24.3-20-44-44-44V87.998z"/>
	<path fill="#FFFFFF" d="M58.073,59.592c-0.535,0-1.037-0.207-1.414-0.584l-1.415-1.414c-0.78-0.78-0.78-2.049,0-2.828l9.743-9.744
		l-9.743-9.743c-0.78-0.779-0.78-2.048,0-2.828l1.414-1.414c0.754-0.754,2.074-0.754,2.828,0l12.571,12.571
		c0.78,0.78,0.78,2.048,0,2.828l-12.57,12.572C59.11,59.385,58.608,59.592,58.073,59.592z M58.072,32.451l-1.414,1.414l9.743,9.743
		c0.78,0.78,0.78,2.048,0,2.828l-9.915,9.744l1.243,1.379v-0.036h0.347l12.567-12.535L58.072,32.451z"/>
</g>
</svg>
