<?xml version="1.0" encoding="utf-8"?>
<!-- Generator: Adobe Illustrator 16.0.0, SVG Export Plug-In . SVG Version: 6.00 Build 0)  -->
<!DOCTYPE svg PUBLIC "-//W3C//DTD SVG 1.1//EN" "http://www.w3.org/Graphics/SVG/1.1/DTD/svg11.dtd">
<svg version="1.1" id="Layer_1" xmlns="http://www.w3.org/2000/svg" xmlns:xlink="http://www.w3.org/1999/xlink" x="0px" y="0px"
	 width="578px" height="19px" viewBox="0 0 578 19" enable-background="new 0 0 578 19" xml:space="preserve">
	<defs>
		<style type="text/css"><![CDATA[
			svg { height: 59px; }
			g:hover {
				cursor:pointer;
			}
			g:hover path:first-of-type,
			g.current path:first-of-type {
				stroke: #909;
				fill: #f6f;
			}
			g:hover path:last-of-type,
			g.current path:last-of-type {
				stroke: #f6f;
			}
		]]></style>
	</defs>
<g class="story-point" data-point="16">
	<path fill="#FFFFFF" d="M546.914,15.157c-0.777,0.777-2.051,0.777-2.828,0l-4.243-4.243c-0.777-0.777-0.777-2.05,0-2.828
		l4.243-4.243c0.777-0.778,2.051-0.778,2.828,0l4.243,4.243c0.777,0.778,0.777,2.051,0,2.828L546.914,15.157z"/>
	<path fill="none" stroke="#000000" stroke-width="2" stroke-miterlimit="10" d="M546.914,15.157c-0.777,0.777-2.051,0.777-2.828,0
		l-4.243-4.243c-0.777-0.777-0.777-2.05,0-2.828l4.243-4.243c0.777-0.778,2.051-0.778,2.828,0l4.243,4.243
		c0.777,0.778,0.777,2.051,0,2.828L546.914,15.157z"/>
</g>
<g class="story-point" data-point="15">
	<path fill="#FFFFFF" d="M512.914,15.157c-0.777,0.777-2.051,0.777-2.828,0l-4.243-4.243c-0.777-0.777-0.777-2.05,0-2.828
		l4.243-4.243c0.777-0.778,2.051-0.778,2.828,0l4.243,4.243c0.777,0.778,0.777,2.051,0,2.828L512.914,15.157z"/>
	<path fill="none" stroke="#000000" stroke-width="2" stroke-miterlimit="10" d="M512.914,15.157c-0.777,0.777-2.051,0.777-2.828,0
		l-4.243-4.243c-0.777-0.777-0.777-2.05,0-2.828l4.243-4.243c0.777-0.778,2.051-0.778,2.828,0l4.243,4.243
		c0.777,0.778,0.777,2.051,0,2.828L512.914,15.157z"/>
</g>
<g class="story-point" data-point="14">
	<path fill="#FFFFFF" d="M478.914,15.157c-0.777,0.777-2.051,0.777-2.828,0l-4.243-4.243c-0.777-0.777-0.777-2.05,0-2.828
		l4.243-4.243c0.777-0.778,2.051-0.778,2.828,0l4.243,4.243c0.777,0.778,0.777,2.051,0,2.828L478.914,15.157z"/>
	<path fill="none" stroke="#000000" stroke-width="2" stroke-miterlimit="10" d="M478.914,15.157c-0.777,0.777-2.051,0.777-2.828,0
		l-4.243-4.243c-0.777-0.777-0.777-2.05,0-2.828l4.243-4.243c0.777-0.778,2.051-0.778,2.828,0l4.243,4.243
		c0.777,0.778,0.777,2.051,0,2.828L478.914,15.157z"/>
</g>
<g class="story-point" data-point="13">
	<path fill="#FFFFFF" d="M444.914,15.157c-0.777,0.777-2.051,0.777-2.828,0l-4.243-4.243c-0.777-0.777-0.777-2.05,0-2.828
		l4.243-4.243c0.777-0.778,2.051-0.778,2.828,0l4.243,4.243c0.777,0.778,0.777,2.051,0,2.828L444.914,15.157z"/>
	<path fill="none" stroke="#000000" stroke-width="2" stroke-miterlimit="10" d="M444.914,15.157c-0.777,0.777-2.051,0.777-2.828,0
		l-4.243-4.243c-0.777-0.777-0.777-2.05,0-2.828l4.243-4.243c0.777-0.778,2.051-0.778,2.828,0l4.243,4.243
		c0.777,0.778,0.777,2.051,0,2.828L444.914,15.157z"/>
</g>
<g class="story-point" data-point="12">
	<path fill="#FFFFFF" d="M410.914,15.157c-0.777,0.777-2.051,0.777-2.828,0l-4.243-4.243c-0.777-0.777-0.777-2.05,0-2.828
		l4.243-4.243c0.777-0.778,2.051-0.778,2.828,0l4.243,4.243c0.777,0.778,0.777,2.051,0,2.828L410.914,15.157z"/>
	<path fill="none" stroke="#000000" stroke-width="2" stroke-miterlimit="10" d="M410.914,15.157c-0.777,0.777-2.051,0.777-2.828,0
		l-4.243-4.243c-0.777-0.777-0.777-2.05,0-2.828l4.243-4.243c0.777-0.778,2.051-0.778,2.828,0l4.243,4.243
		c0.777,0.778,0.777,2.051,0,2.828L410.914,15.157z"/>
</g>
<g class="story-point" data-point="11">
	<path fill="#FFFFFF" d="M376.914,15.157c-0.777,0.777-2.051,0.777-2.828,0l-4.243-4.243c-0.777-0.777-0.777-2.05,0-2.828
		l4.243-4.243c0.777-0.778,2.051-0.778,2.828,0l4.243,4.243c0.777,0.778,0.777,2.051,0,2.828L376.914,15.157z"/>
	<path fill="none" stroke="#000000" stroke-width="2" stroke-miterlimit="10" d="M376.914,15.157c-0.777,0.777-2.051,0.777-2.828,0
		l-4.243-4.243c-0.777-0.777-0.777-2.05,0-2.828l4.243-4.243c0.777-0.778,2.051-0.778,2.828,0l4.243,4.243
		c0.777,0.778,0.777,2.051,0,2.828L376.914,15.157z"/>
</g>
<g class="story-point" data-point="10">
	<path fill="#FFFFFF" d="M342.914,15.157c-0.777,0.777-2.051,0.777-2.828,0l-4.243-4.243c-0.777-0.777-0.777-2.05,0-2.828
		l4.243-4.243c0.777-0.778,2.051-0.778,2.828,0l4.243,4.243c0.777,0.778,0.777,2.051,0,2.828L342.914,15.157z"/>
	<path fill="none" stroke="#000000" stroke-width="2" stroke-miterlimit="10" d="M342.914,15.157c-0.777,0.777-2.051,0.777-2.828,0
		l-4.243-4.243c-0.777-0.777-0.777-2.05,0-2.828l4.243-4.243c0.777-0.778,2.051-0.778,2.828,0l4.243,4.243
		c0.777,0.778,0.777,2.051,0,2.828L342.914,15.157z"/>
</g>
<g class="story-point" data-point="9">
	<path fill="#FFFFFF" d="M308.914,15.157c-0.777,0.777-2.051,0.777-2.828,0l-4.243-4.243c-0.777-0.777-0.777-2.05,0-2.828
		l4.243-4.243c0.777-0.778,2.051-0.778,2.828,0l4.243,4.243c0.777,0.778,0.777,2.051,0,2.828L308.914,15.157z"/>
	<path fill="none" stroke="#000000" stroke-width="2" stroke-miterlimit="10" d="M308.914,15.157c-0.777,0.777-2.051,0.777-2.828,0
		l-4.243-4.243c-0.777-0.777-0.777-2.05,0-2.828l4.243-4.243c0.777-0.778,2.051-0.778,2.828,0l4.243,4.243
		c0.777,0.778,0.777,2.051,0,2.828L308.914,15.157z"/>
</g>
<g class="story-point" data-point="8">
	<path fill="#FFFFFF" d="M272.914,15.157c-0.778,0.777-2.05,0.777-2.828,0l-4.243-4.243c-0.778-0.777-0.778-2.05,0-2.828
		l4.243-4.243c0.778-0.778,2.05-0.778,2.828,0l4.243,4.243c0.778,0.778,0.778,2.051,0,2.828L272.914,15.157z"/>
	<path fill="none" stroke="#000000" stroke-width="2" stroke-miterlimit="10" d="M272.914,15.157c-0.778,0.777-2.05,0.777-2.828,0
		l-4.243-4.243c-0.778-0.777-0.778-2.05,0-2.828l4.243-4.243c0.778-0.778,2.05-0.778,2.828,0l4.243,4.243
		c0.778,0.778,0.778,2.051,0,2.828L272.914,15.157z"/>
</g>
<g class="story-point" data-point="7">
	<path fill="#FFFFFF" d="M238.914,15.157c-0.778,0.777-2.05,0.777-2.828,0l-4.243-4.243c-0.778-0.777-0.778-2.05,0-2.828
		l4.243-4.243c0.778-0.778,2.05-0.778,2.828,0l4.243,4.243c0.778,0.778,0.778,2.051,0,2.828L238.914,15.157z"/>
	<path fill="none" stroke="#000000" stroke-width="2" stroke-miterlimit="10" d="M238.914,15.157c-0.778,0.777-2.05,0.777-2.828,0
		l-4.243-4.243c-0.778-0.777-0.778-2.05,0-2.828l4.243-4.243c0.778-0.778,2.05-0.778,2.828,0l4.243,4.243
		c0.778,0.778,0.778,2.051,0,2.828L238.914,15.157z"/>
</g>
<g class="story-point" data-point="6">
	<path fill="#4D916D" d="M204.914,15.157c-0.778,0.777-2.05,0.777-2.828,0l-4.243-4.243c-0.778-0.777-0.778-2.05,0-2.828
		l4.243-4.243c0.778-0.778,2.05-0.778,2.828,0l4.243,4.243c0.778,0.778,0.778,2.051,0,2.828L204.914,15.157z"/>
	<path fill="none" stroke="#4D916D" stroke-width="5" stroke-miterlimit="10" d="M204.914,15.157c-0.778,0.777-2.05,0.777-2.828,0
		l-4.243-4.243c-0.778-0.777-0.778-2.05,0-2.828l4.243-4.243c0.778-0.778,2.05-0.778,2.828,0l4.243,4.243
		c0.778,0.778,0.778,2.051,0,2.828L204.914,15.157z"/>
</g>
<g class="story-point" data-point="5">
	<path fill="#6BB5C9" d="M170.914,15.157c-0.778,0.777-2.05,0.777-2.828,0l-4.243-4.243c-0.778-0.777-0.778-2.05,0-2.828
		l4.243-4.243c0.778-0.778,2.05-0.778,2.828,0l4.243,4.243c0.778,0.778,0.778,2.051,0,2.828L170.914,15.157z"/>
	<path fill="none" stroke="#6BB5C9" stroke-width="5" stroke-miterlimit="10" d="M170.914,15.157c-0.778,0.777-2.05,0.777-2.828,0
		l-4.243-4.243c-0.778-0.777-0.778-2.05,0-2.828l4.243-4.243c0.778-0.778,2.05-0.778,2.828,0l4.243,4.243
		c0.778,0.778,0.778,2.051,0,2.828L170.914,15.157z"/>
</g>
<g class="story-point" data-point="4">
	<path fill="#FFFFFF" d="M136.914,15.157c-0.778,0.777-2.05,0.777-2.828,0l-4.243-4.243c-0.778-0.777-0.778-2.05,0-2.828
		l4.243-4.243c0.778-0.778,2.05-0.778,2.828,0l4.243,4.243c0.778,0.778,0.778,2.051,0,2.828L136.914,15.157z"/>
	<path fill="none" stroke="#000000" stroke-width="2" stroke-miterlimit="10" d="M136.914,15.157c-0.778,0.777-2.05,0.777-2.828,0
		l-4.243-4.243c-0.778-0.777-0.778-2.05,0-2.828l4.243-4.243c0.778-0.778,2.05-0.778,2.828,0l4.243,4.243
		c0.778,0.778,0.778,2.051,0,2.828L136.914,15.157z"/>
</g>
<g class="story-point" data-point="3">
	<path fill="#FFFFFF" d="M102.914,15.157c-0.778,0.777-2.05,0.777-2.828,0l-4.243-4.243c-0.778-0.777-0.778-2.05,0-2.828
		l4.243-4.243c0.778-0.778,2.05-0.778,2.828,0l4.243,4.243c0.778,0.778,0.778,2.051,0,2.828L102.914,15.157z"/>
	<path fill="none" stroke="#000000" stroke-width="2" stroke-miterlimit="10" d="M102.914,15.157c-0.778,0.777-2.05,0.777-2.828,0
		l-4.243-4.243c-0.778-0.777-0.778-2.05,0-2.828l4.243-4.243c0.778-0.778,2.05-0.778,2.828,0l4.243,4.243
		c0.778,0.778,0.778,2.051,0,2.828L102.914,15.157z"/>
</g>
<g class="story-point" data-point="2">
	<path fill="#FFFFFF" d="M68.914,15.157c-0.778,0.777-2.05,0.777-2.828,0l-4.243-4.243c-0.778-0.777-0.778-2.05,0-2.828l4.243-4.243
		c0.778-0.778,2.05-0.778,2.828,0l4.243,4.243c0.778,0.778,0.778,2.051,0,2.828L68.914,15.157z"/>
	<path fill="none" stroke="#000000" stroke-width="2" stroke-miterlimit="10" d="M68.914,15.157c-0.778,0.777-2.05,0.777-2.828,0
		l-4.243-4.243c-0.778-0.777-0.778-2.05,0-2.828l4.243-4.243c0.778-0.778,2.05-0.778,2.828,0l4.243,4.243
		c0.778,0.778,0.778,2.051,0,2.828L68.914,15.157z"/>
</g>
<g class="story-point" data-point="1">
	<path fill="#FFFFFF" d="M34.914,15.157c-0.778,0.777-2.05,0.777-2.828,0l-4.243-4.243c-0.778-0.777-0.778-2.05,0-2.828l4.243-4.243
		c0.778-0.778,2.05-0.778,2.828,0l4.243,4.243c0.778,0.778,0.778,2.051,0,2.828L34.914,15.157z"/>
	<path fill="none" stroke="#000000" stroke-width="2" stroke-miterlimit="10" d="M34.914,15.157c-0.778,0.777-2.05,0.777-2.828,0
		l-4.243-4.243c-0.778-0.777-0.778-2.05,0-2.828l4.243-4.243c0.778-0.778,2.05-0.778,2.828,0l4.243,4.243
		c0.778,0.778,0.778,2.051,0,2.828L34.914,15.157z"/>
</g>
</svg>
