<?xml version="1.0" encoding="utf-8"?>
<!-- Generator: Adobe Illustrator 16.0.0, SVG Export Plug-In . SVG Version: 6.00 Build 0)  -->
<!DOCTYPE svg PUBLIC "-//W3C//DTD SVG 1.1//EN" "http://www.w3.org/Graphics/SVG/1.1/DTD/svg11.dtd">
<svg version="1.1" id="Layer_1" xmlns="http://www.w3.org/2000/svg" xmlns:xlink="http://www.w3.org/1999/xlink" x="0px" y="0px"
	 width="65px" height="26px" viewBox="0 0 65 26" enable-background="new 0 0 65 26" xml:space="preserve">
<g>
	<path d="M30.5,3h-29C0.671,3,0,2.329,0,1.5S0.671,0,1.5,0h29C31.328,0,32,0.671,32,1.5S31.328,3,30.5,3z"/>
	<path d="M30.5,19h-29C0.671,19,0,18.329,0,17.5S0.671,16,1.5,16h29c0.828,0,1.5,0.671,1.5,1.5S31.328,19,30.5,19z"/>
	<path d="M30.5,10h-22c-0.552,0-1-0.448-1-1s0.448-1,1-1h22c0.553,0,1,0.448,1,1S31.053,10,30.5,10z"/>
	<path d="M30.5,26h-22c-0.552,0-1-0.447-1-1s0.448-1,1-1h22c0.553,0,1,0.447,1,1S31.053,26,30.5,26z"/>
</g>
<g>
	<path fill="#2BBCA0" d="M63.5,3h-29C33.672,3,33,2.329,33,1.5S33.672,0,34.5,0h29C64.328,0,65,0.671,65,1.5S64.328,3,63.5,3z"/>
	<path fill="#2BBCA0" d="M63.5,19h-29c-0.828,0-1.5-0.671-1.5-1.5s0.672-1.5,1.5-1.5h29c0.828,0,1.5,0.671,1.5,1.5
		S64.328,19,63.5,19z"/>
	<path fill="#2BBCA0" d="M63.5,10h-22c-0.553,0-1-0.448-1-1s0.447-1,1-1h22c0.553,0,1,0.448,1,1S64.053,10,63.5,10z"/>
	<path fill="#2BBCA0" d="M63.5,26h-22c-0.553,0-1-0.447-1-1s0.447-1,1-1h22c0.553,0,1,0.447,1,1S64.053,26,63.5,26z"/>
</g>
</svg>
