<?xml version="1.0" encoding="utf-8"?>
<!-- Generator: Adobe Illustrator 16.0.0, SVG Export Plug-In . SVG Version: 6.00 Build 0)  -->
<!DOCTYPE svg PUBLIC "-//W3C//DTD SVG 1.1//EN" "http://www.w3.org/Graphics/SVG/1.1/DTD/svg11.dtd">
<svg version="1.1" id="Layer_1" xmlns="http://www.w3.org/2000/svg" xmlns:xlink="http://www.w3.org/1999/xlink" x="0px" y="0px"
	 width="23.936px" height="80.313px" viewBox="0 0 23.936 80.313" enable-background="new 0 0 23.936 80.313" xml:space="preserve">
<g>
	<g>
		<path fill="#050505" d="M12.652,54.651c-1.544,0-2.935-0.917-3.543-2.337l-0.115-0.269c-0.837-1.952,0.069-4.222,2.021-5.06
			l0.272-0.116c0.483-0.208,0.994-0.312,1.517-0.312c1.543,0,2.934,0.917,3.542,2.335l0.116,0.269
			c0.838,1.954-0.069,4.223-2.021,5.061l-0.272,0.117C13.685,54.546,13.175,54.651,12.652,54.651z"/>
		<g>
			<path fill="#FFFFFF" d="M12.803,47.558c1.107,0,2.16,0.647,2.624,1.729l0.117,0.271c0.62,1.446-0.05,3.124-1.497,3.745
				l-0.272,0.117c-0.366,0.157-0.747,0.231-1.122,0.231c-1.106,0-2.16-0.648-2.624-1.73l-0.116-0.27
				c-0.621-1.448,0.049-3.125,1.496-3.746l0.271-0.116C12.047,47.632,12.428,47.558,12.803,47.558 M12.803,45.558L12.803,45.558
				c-0.659,0-1.302,0.132-1.911,0.394l-0.271,0.115c-2.459,1.056-3.602,3.914-2.547,6.373L8.19,52.71
				c0.765,1.786,2.517,2.941,4.461,2.941c0.659,0,1.302-0.132,1.911-0.394l0.273-0.118c2.457-1.054,3.599-3.912,2.545-6.37
				l-0.119-0.274C16.499,46.712,14.748,45.558,12.803,45.558L12.803,45.558z"/>
		</g>
	</g>
	<g>
		<path fill="#050505" d="M12.63,39.749c-1.544,0-2.935-0.917-3.542-2.337l-0.115-0.268c-0.838-1.953,0.069-4.223,2.02-5.061
			l0.271-0.116c0.485-0.208,0.995-0.313,1.518-0.313c1.544,0,2.935,0.917,3.543,2.334l0.117,0.272
			c0.836,1.951-0.071,4.221-2.022,5.058l-0.272,0.117C13.663,39.644,13.153,39.749,12.63,39.749z"/>
		<g>
			<path fill="#FFFFFF" d="M12.781,32.654c1.107,0,2.161,0.648,2.625,1.729l0.116,0.271c0.62,1.447-0.05,3.124-1.497,3.745
				l-0.272,0.117c-0.366,0.157-0.747,0.231-1.122,0.231c-1.106,0-2.16-0.648-2.623-1.73l-0.116-0.27
				c-0.621-1.448,0.049-3.125,1.496-3.746l0.272-0.117C12.025,32.729,12.406,32.654,12.781,32.654 M12.781,30.655L12.781,30.655
				c-0.659,0-1.301,0.132-1.909,0.393l-0.276,0.119c-2.455,1.055-3.597,3.913-2.542,6.371l0.118,0.273
				c0.763,1.783,2.514,2.938,4.459,2.938c0.659,0,1.302-0.132,1.911-0.394l0.273-0.118c2.456-1.054,3.599-3.911,2.545-6.37
				l-0.116-0.271C16.477,31.809,14.725,30.655,12.781,30.655L12.781,30.655z"/>
		</g>
	</g>
	<g>
		<path fill="#050505" d="M12.609,24.847c-1.543,0-2.934-0.917-3.542-2.336l-0.116-0.27c-0.837-1.952,0.069-4.222,2.021-5.06
			l0.273-0.117c0.483-0.207,0.993-0.312,1.516-0.312c1.544,0,2.935,0.917,3.543,2.335l0.116,0.27
			c0.836,1.954-0.071,4.223-2.022,5.06l-0.271,0.117C13.641,24.742,13.131,24.847,12.609,24.847z"/>
		<g>
			<path fill="#FFFFFF" d="M12.76,17.753c1.107,0,2.16,0.647,2.624,1.729l0.116,0.271c0.62,1.448-0.049,3.125-1.498,3.746
				l-0.272,0.117c-0.366,0.157-0.747,0.231-1.122,0.231c-1.106,0-2.16-0.648-2.624-1.73l-0.116-0.271
				c-0.621-1.448,0.05-3.125,1.496-3.746l0.272-0.117C12.004,17.827,12.385,17.753,12.76,17.753 M12.76,15.753L12.76,15.753
				c-0.659,0-1.301,0.132-1.91,0.393l-0.273,0.117c-2.459,1.056-3.601,3.915-2.546,6.373l0.117,0.271
				c0.766,1.786,2.517,2.94,4.461,2.94c0.659,0,1.301-0.132,1.91-0.394l0.272-0.117c2.458-1.054,3.601-3.912,2.547-6.371
				l-0.117-0.273C16.456,16.907,14.704,15.753,12.76,15.753L12.76,15.753z"/>
		</g>
	</g>
	<g>
		<path fill="#050505" d="M12.587,9.945c-1.543,0-2.934-0.917-3.542-2.334L8.928,7.338c-0.837-1.951,0.069-4.22,2.021-5.058
			l0.274-0.117c0.483-0.207,0.993-0.312,1.515-0.312c1.544,0,2.935,0.917,3.543,2.336l0.115,0.268
			c0.837,1.956-0.07,4.225-2.022,5.062l-0.272,0.117C13.62,9.84,13.11,9.945,12.587,9.945z"/>
		<g>
			<path fill="#FFFFFF" d="M12.738,2.851c1.107,0,2.16,0.647,2.624,1.729l0.117,0.271c0.62,1.449-0.049,3.125-1.498,3.747
				l-0.271,0.116c-0.366,0.157-0.747,0.231-1.122,0.231c-1.106,0-2.159-0.648-2.623-1.729L9.848,6.944
				C9.227,5.497,9.897,3.82,11.344,3.199l0.273-0.117C11.983,2.925,12.364,2.851,12.738,2.851 M12.738,0.851
				c-0.658,0-1.3,0.132-1.909,0.393L10.556,1.36C8.097,2.416,6.955,5.275,8.01,7.733l0.115,0.27
				c0.768,1.788,2.519,2.942,4.462,2.942c0.659,0,1.302-0.132,1.91-0.394l0.271-0.115c2.459-1.055,3.603-3.913,2.55-6.373
				l-0.119-0.276C16.435,2.005,14.684,0.851,12.738,0.851L12.738,0.851z"/>
		</g>
	</g>
</g>
<g>
	<path d="M9.11,58.926c4.858-1.738,10.208,0.79,11.949,5.649l0.326,0.909c1.739,4.86-0.787,10.21-5.646,11.95l-0.914,0.326
		c-4.857,1.74-10.207-0.79-11.946-5.646l-0.327-0.91c-1.742-4.858,0.786-10.21,5.644-11.95L9.11,58.926z"/>
	<path fill="#FFFFFF" d="M4.476,61.717c0.99-1.076,2.248-1.936,3.72-2.463l0.915-0.328c4.858-1.738,10.208,0.79,11.949,5.649
		l0.326,0.909c1.211,3.387,0.352,7.012-1.925,9.487c-0.991,1.076-2.249,1.936-3.722,2.463l-0.914,0.326
		c-4.857,1.74-10.207-0.79-11.946-5.646l-0.327-0.91C1.338,67.818,2.198,64.192,4.476,61.717 M3.004,60.362L3.004,60.362
		c-2.869,3.119-3.764,7.532-2.335,11.518l0.327,0.91c1.021,2.851,3.092,5.135,5.832,6.43s5.82,1.446,8.672,0.424l0.912-0.326
		c1.725-0.617,3.287-1.651,4.52-2.991c2.867-3.117,3.763-7.529,2.336-11.516l-0.326-0.91c-2.109-5.889-8.617-8.965-14.505-6.857
		L7.52,57.372C5.798,57.989,4.236,59.022,3.004,60.362L3.004,60.362z"/>
</g>
</svg>
