<?xml version="1.0" encoding="utf-8"?>
<!-- Generator: Adobe Illustrator 16.0.0, SVG Export Plug-In . SVG Version: 6.00 Build 0)  -->
<!DOCTYPE svg PUBLIC "-//W3C//DTD SVG 1.1//EN" "http://www.w3.org/Graphics/SVG/1.1/DTD/svg11.dtd">
<svg version="1.1" id="Layer_1" xmlns="http://www.w3.org/2000/svg" xmlns:xlink="http://www.w3.org/1999/xlink" x="0px" y="0px"
	 width="80px" height="26px" viewBox="0 0 80 26" enable-background="new 0 0 80 26" xml:space="preserve">
<path d="M10.911,25.62c-0.328-0.327-0.511-0.635-0.511-1.097V15.6H1.739C0.815,15.6,0,15.047,0,14.123V12.39
	C0,11.434,0.783,10.4,1.739,10.4H10.4V1.99C10.4,1.033,11.183,0,12.14,0h1.733C14.797,0,15.6,1.065,15.6,1.99v8.41h8.673
	C25.197,10.4,26,11.465,26,12.39v1.733c0,0.957-0.771,1.477-1.728,1.477H15.6v8.924c0,0.956-0.771,1.477-1.727,1.477H12.14
	C11.677,26,11.239,25.948,10.911,25.62z M11.631,14.504c0.328,0.327,0.36,0.678,0.36,1.139l-0.149,8.551l0.118-0.102l0.299,0.307
	l1.672,0.062l-0.028-8.637c0-0.461,0.165-0.881,0.492-1.209c0.329-0.328,0.756-0.5,1.218-0.5l8.664-0.123l-0.002-1.859h-8.668
	c-0.924,0-1.74-0.553-1.74-1.477V1.733h-1.732v8.923c0,0.463-0.178,0.77-0.505,1.098c-0.328,0.327-0.761,0.379-1.223,0.379H1.733
	v1.734h8.673C10.868,13.867,11.302,14.176,11.631,14.504z"/>
<path fill="#2BBCA0" d="M37.911,25.62c-0.328-0.327-0.511-0.635-0.511-1.097V15.6h-8.661C27.815,15.6,27,15.047,27,14.123V12.39
	c0-0.956,0.783-1.989,1.739-1.989H37.4V1.99C37.4,1.033,38.183,0,39.14,0h1.733C41.797,0,42.6,1.065,42.6,1.99v8.41h8.673
	C52.197,10.4,53,11.465,53,12.39v1.733c0,0.957-0.771,1.477-1.728,1.477H42.6v8.924c0,0.956-0.771,1.477-1.727,1.477H39.14
	C38.677,26,38.239,25.948,37.911,25.62z M38.631,14.504c0.328,0.327,0.36,0.678,0.36,1.139l-0.149,8.551l0.118-0.102l0.299,0.307
	l1.672,0.062l-0.028-8.637c0-0.461,0.165-0.881,0.492-1.209c0.329-0.328,0.756-0.5,1.218-0.5l8.664-0.123l-0.002-1.859h-8.668
	c-0.924,0-1.74-0.553-1.74-1.477V1.733h-1.732v8.923c0,0.463-0.178,0.77-0.505,1.098c-0.328,0.327-0.761,0.379-1.223,0.379h-8.673
	v1.734h8.673C37.868,13.867,38.302,14.176,38.631,14.504z"/>
<path fill="#FFFFFF" d="M64.911,25.62c-0.328-0.327-0.511-0.635-0.511-1.097V15.6h-8.661C54.815,15.6,54,15.047,54,14.123V12.39
	c0-0.956,0.783-1.989,1.739-1.989H64.4V1.99C64.4,1.033,65.183,0,66.14,0h1.733C68.797,0,69.6,1.065,69.6,1.99v8.41h8.673
	C79.197,10.4,80,11.465,80,12.39v1.733c0,0.957-0.771,1.477-1.728,1.477H69.6v8.924c0,0.956-0.771,1.477-1.727,1.477H66.14
	C65.677,26,65.239,25.948,64.911,25.62z M65.631,14.504c0.328,0.327,0.36,0.678,0.36,1.139l-0.149,8.551l0.118-0.102l0.299,0.307
	l1.672,0.062l-0.028-8.637c0-0.461,0.165-0.881,0.492-1.209c0.329-0.328,0.756-0.5,1.218-0.5l8.664-0.123l-0.002-1.859h-8.668
	c-0.924,0-1.74-0.553-1.74-1.477V1.733h-1.732v8.923c0,0.463-0.178,0.77-0.505,1.098c-0.328,0.327-0.761,0.379-1.223,0.379h-8.673
	v1.734h8.673C64.868,13.867,65.302,14.176,65.631,14.504z"/>
</svg>
