<?xml version="1.0" encoding="utf-8"?>
<!-- Generator: Adobe Illustrator 16.0.0, SVG Export Plug-In . SVG Version: 6.00 Build 0)  -->
<!DOCTYPE svg PUBLIC "-//W3C//DTD SVG 1.1//EN" "http://www.w3.org/Graphics/SVG/1.1/DTD/svg11.dtd">
<svg version="1.1" id="Layer_1" xmlns="http://www.w3.org/2000/svg" xmlns:xlink="http://www.w3.org/1999/xlink" x="0px" y="0px"
	 width="80.135px" height="21px" viewBox="0 0 80.135 21" enable-background="new 0 0 80.135 21" xml:space="preserve">
<g>
	<path d="M25.5,1.291c-0.177-0.064-0.371-0.063-0.55-0.001l-0.06,0.022L24.829,1.29c-0.084-0.032-0.183-0.047-0.301-0.048
		c-0.009,0-1.244,0.033-2.822,0.198l-0.075,0.008l-0.058-0.049C20.515,0.483,19.306,0,17.897,0c-3.14,0-5.624,2.501-5.624,5.577
		v0.19l-0.288-0.023C5.959,5.001,3.498,1.432,3.398,1.28C3.257,1.061,2.979,0.926,2.709,0.926L2.644,0.928
		C2.358,0.95,2.103,1.125,1.987,1.384c-3.332,7.533,2.067,12.617,4.545,14.454l0.191,0.143l-0.202,0.133
		c-0.862,0.562-2.318,1.236-4.364,1.236c-0.417,0-0.847-0.029-1.278-0.084c-0.04-0.007-0.077-0.01-0.113-0.01
		c-0.323,0-0.613,0.204-0.724,0.51c-0.121,0.338,0.02,0.719,0.332,0.902C0.416,18.691,4.449,21,9.304,21
		c3.769,0,7.022-1.354,9.673-4.025c4.406-4.443,4.999-8.381,4.72-10.901L23.688,5.99l0.062-0.057c1.172-1.086,2.038-3.242,2.2-3.662
		C26.102,1.877,25.899,1.438,25.5,1.291z M23.902,3.044c-0.307,0.595-0.904,1.641-1.447,1.962c-0.273,0.162-0.417,0.466-0.365,0.776
		c0.388,2.289-0.032,5.903-4.228,10.133c-2.377,2.396-5.281,3.61-8.635,3.61c-1.434,0-2.931-0.226-4.446-0.668l-0.575-0.17
		l0.578-0.155c2.48-0.669,3.774-2.106,3.787-2.12c0.156-0.173,0.224-0.402,0.188-0.629c-0.036-0.223-0.179-0.422-0.378-0.536
		C8.068,15.068,0.742,10.81,2.866,3.464l0.08-0.276L3.153,3.39c1.383,1.35,4.491,3.661,9.768,3.973l0.051,0.002
		c0.223,0,0.442-0.101,0.59-0.268c0.155-0.18,0.217-0.427,0.166-0.66c-0.062-0.257-0.092-0.539-0.092-0.836
		c0-2.25,1.868-4.08,4.165-4.08c1.138,0,2.199,0.444,2.995,1.251c0.16,0.164,0.404,0.243,0.652,0.227
		c0.938-0.108,1.764-0.168,2.29-0.2l0.299-0.018L23.902,3.044z"/>
</g>
<g>
	<path fill="#2BBCA0" d="M52.636,1.291c-0.178-0.064-0.371-0.063-0.551-0.001l-0.061,0.022L51.965,1.29
		c-0.084-0.032-0.183-0.047-0.301-0.048c-0.009,0-1.244,0.033-2.822,0.198l-0.074,0.008l-0.059-0.049C47.65,0.483,46.373,0,44.965,0
		c-3.139,0-5.69,2.501-5.69,5.577v0.19l-0.221-0.023C33.027,5.001,30.6,1.432,30.5,1.28c-0.142-0.219-0.402-0.354-0.673-0.354
		l-0.056,0.002c-0.286,0.022-0.537,0.197-0.652,0.456c-3.331,7.533,2.069,12.617,4.547,14.455l0.192,0.144l-0.202,0.132
		c-0.861,0.562-2.317,1.235-4.362,1.237c-0.417,0-0.848-0.029-1.276-0.086c-0.041-0.006-0.078-0.009-0.115-0.009
		c-0.322,0-0.612,0.204-0.723,0.509c-0.121,0.34,0.02,0.719,0.332,0.903C27.552,18.691,31.585,21,36.439,21
		c3.769,0,7.022-1.354,9.673-4.025c4.407-4.443,4.999-8.381,4.72-10.901L50.823,5.99l0.062-0.057c1.173-1.086,2.038-3.242,2.2-3.662
		C53.237,1.877,53.035,1.438,52.636,1.291z M51.038,3.044c-0.307,0.595-0.904,1.641-1.447,1.962
		c-0.273,0.162-0.417,0.466-0.364,0.776c0.387,2.289-0.033,5.903-4.229,10.133c-2.377,2.396-5.281,3.608-8.635,3.608
		c-1.433,0-2.93-0.225-4.446-0.668l-0.574-0.168l0.578-0.156c2.479-0.67,3.773-2.106,3.786-2.12
		c0.156-0.173,0.225-0.402,0.188-0.629c-0.037-0.224-0.18-0.423-0.378-0.536c-0.312-0.18-7.64-4.437-5.517-11.783l0.08-0.276
		l0.208,0.202c1.384,1.35,4.491,3.661,9.769,3.973l0.05,0.002c0.223,0,0.442-0.101,0.59-0.268c0.156-0.18,0.217-0.427,0.166-0.66
		c-0.062-0.257-0.091-0.539-0.091-0.836c0-2.25,1.868-4.08,4.165-4.08c1.137,0,2.199,0.444,2.995,1.251
		c0.159,0.164,0.403,0.243,0.651,0.227c0.938-0.108,1.765-0.168,2.29-0.2l0.299-0.018L51.038,3.044z"/>
</g>
<g>
	<path fill="#FFFFFF" d="M79.635,1.291c-0.178-0.064-0.371-0.063-0.551-0.001l-0.061,0.022L78.964,1.29
		c-0.084-0.032-0.183-0.047-0.301-0.048c-0.009,0-1.244,0.033-2.822,0.198l-0.074,0.008l-0.059-0.049
		C74.649,0.483,73.372,0,71.964,0c-3.139,0-5.69,2.501-5.69,5.577v0.19l-0.221-0.023c-6.026-0.743-8.453-4.312-8.554-4.464
		c-0.142-0.219-0.402-0.354-0.673-0.354L56.77,0.928c-0.286,0.022-0.537,0.197-0.652,0.456c-3.331,7.533,2.069,12.617,4.547,14.455
		l0.192,0.144l-0.202,0.132c-0.861,0.562-2.317,1.235-4.362,1.237c-0.417,0-0.848-0.029-1.276-0.086
		c-0.041-0.006-0.078-0.009-0.115-0.009c-0.322,0-0.612,0.204-0.723,0.509c-0.121,0.34,0.02,0.719,0.332,0.903
		C54.551,18.691,58.584,21,63.438,21c3.769,0,7.022-1.354,9.673-4.025c4.407-4.443,4.999-8.381,4.72-10.901L77.822,5.99l0.062-0.057
		c1.173-1.086,2.038-3.242,2.2-3.662C80.236,1.877,80.034,1.438,79.635,1.291z M78.037,3.044c-0.307,0.595-0.904,1.641-1.447,1.962
		c-0.273,0.162-0.417,0.466-0.364,0.776c0.387,2.289-0.033,5.903-4.229,10.133c-2.377,2.396-5.281,3.608-8.635,3.608
		c-1.433,0-2.93-0.225-4.446-0.668l-0.574-0.168l0.578-0.156c2.479-0.67,3.773-2.106,3.786-2.12
		c0.156-0.173,0.225-0.402,0.188-0.629c-0.037-0.224-0.18-0.423-0.378-0.536c-0.312-0.18-7.64-4.437-5.517-11.783l0.08-0.276
		l0.208,0.202c1.384,1.35,4.491,3.661,9.769,3.973l0.05,0.002c0.223,0,0.442-0.101,0.59-0.268c0.156-0.18,0.217-0.427,0.166-0.66
		c-0.062-0.257-0.091-0.539-0.091-0.836c0-2.25,1.868-4.08,4.165-4.08c1.137,0,2.199,0.444,2.995,1.251
		c0.159,0.164,0.403,0.243,0.651,0.227c0.938-0.108,1.765-0.168,2.29-0.2l0.299-0.018L78.037,3.044z"/>
</g>
</svg>
